<svg xmlns="http://www.w3.org/2000/svg" viewBox="0 0 1080 980" width="1080" height="980"><g transform="translate(17.0 69.0) rotate(0.0 499.5 423.0) scale(1.5113464447806355 1.5107142857142857)"><svg width="661" height="560" viewBox="0 0 661 560"><clipPath id="a"><path d="M0 0h660.5v559.2H0z"/></clipPath><g clip-path="url(#a)"><path d="M179 544.9c-198-32.3-208.3-225.4-143-387C61.5 98.3 114.3 12.1 296.7.5 458-9.8 625.3 154.5 656.1 320.8 698.2 548 427.3 585.4 179 544.9z" fill="#fece2f"/></g></svg></g><g transform="translate(638.0 571.0) rotate(0.0 189.0 189.0) translate(5.169364027801909 3.8770230208514307) scale(2.739130434782609 2.739130434782609)"><svg width="133.984" height="134.714" viewBox="1.887 1.415 133.984 134.714"><clipPath id="b"><path d="M0 0h137.667v137.667H0z"/></clipPath><g clip-path="url(#b)"><path d="M136.167 1.5H1.5v134.667h134.667z" fill="#fece2f" stroke="#1a1a1a" stroke-miterlimit="10" stroke-width="3"/></g></svg></g><g transform="translate(625.0 211.0) rotate(0.0 188.5 184.0) scale(1.2161290322580645 1.2145214521452146)"><svg width="310" height="303" viewBox="0 0 310 303"><clipPath id="c"><path d="M0 0h309.5v303H0z"/></clipPath><g clip-path="url(#c)"><path d="M206.5 171.5h-85v130h85z" fill="#fece2f"/><path d="M208 303h-88V170h88zm-85-3h82V173h-82z" fill="#1a1a1a"/><path d="M121.5 239.326s52.67-3.166 85 26.834c.659-22 .163-49.334.163-49.334H121.5z" fill="#1a1a1a"/><path d="M288 1.5H45.5c-11.046 0-20 8.954-20 20V206c0 11.046 8.954 20 20 20H288c11.046 0 20-8.954 20-20V21.5c0-11.046-8.954-20-20-20z" fill="#fece2f"/><path d="M288 227.5H45.5A21.525 21.525 0 0 1 24 206V21.5A21.525 21.525 0 0 1 45.5 0H288a21.523 21.523 0 0 1 21.5 21.5V206a21.523 21.523 0 0 1-21.5 21.5zM45.5 3A18.52 18.52 0 0 0 27 21.5V206a18.52 18.52 0 0 0 18.5 18.5H288a18.518 18.518 0 0 0 18.5-18.5V21.5A18.52 18.52 0 0 0 288 3z" fill="#1a1a1a"/><path d="M264 1.5H21.5c-11.046 0-20 8.954-20 20V206c0 11.046 8.954 20 20 20H264c11.046 0 20-8.954 20-20V21.5c0-11.046-8.954-20-20-20z" fill="#fece2f"/><path d="M264 227.5H21.5A21.525 21.525 0 0 1 0 206V21.5A21.525 21.525 0 0 1 21.5 0H264a21.523 21.523 0 0 1 21.5 21.5V206a21.523 21.523 0 0 1-21.5 21.5zM21.5 3A18.521 18.521 0 0 0 3 21.5V206a18.52 18.52 0 0 0 18.5 18.5H264a18.518 18.518 0 0 0 18.5-18.5V21.5A18.52 18.52 0 0 0 264 3z" fill="#1a1a1a"/><path d="M261 192.5V35c0-5.799-4.701-10.5-10.5-10.5H35c-5.799 0-10.5 4.701-10.5 10.5v157.5c0 5.799 4.701 10.5 10.5 10.5h215.5c5.799 0 10.5-4.701 10.5-10.5z" fill="#1a1a1a"/><path d="M235.5 289.5h-152a6 6 0 1 0 0 12h152a6 6 0 1 0 0-12z" fill="#fece2f"/><path d="M235.5 303h-152a7.498 7.498 0 0 1-5.303-12.803A7.498 7.498 0 0 1 83.5 288h152a7.497 7.497 0 0 1 7.5 7.5 7.497 7.497 0 0 1-7.5 7.5zm-152-12a4.5 4.5 0 1 0 0 9h152a4.5 4.5 0 0 0 0-9z" fill="#1a1a1a"/></g></svg></g><g transform="translate(490.0 498.0) rotate(0.0 -179.5 222.0) scale(-1.3054545454545454 1.3058823529411765)"><svg width="275" height="340" viewBox="0 0 275 340"><clipPath id="d"><path d="M0 0h274.35v339.14H0z"/></clipPath><g clip-path="url(#d)"><path d="M157.58 191.57h-15.2v98.75h15.2z" fill="#fece2f"/><path d="M157.58 291.32h-15.21a1 1 0 0 1-1-1v-98.75a1 1 0 0 1 1-1h15.21a1.002 1.002 0 0 1 1 1v98.75a.997.997 0 0 1-1 1zm-14.21-2h13.21v-96.75h-13.21z" fill="#1a1a1a"/><path d="M158.78 285.43h-17.64l-94.63 35.49c-15.63 4 43.31 16.51 102.6 17.18 60.93.7 122.24-10.6 103.37-17.18z" fill="#fece2f"/><path d="M138.25 286.41s-56.89 26.11-54.79 33.34 8.16 13.29 23.32 16.09c-28.68-1.87-63.89-9.56-62.95-14 6.76-2.32 94.42-35.43 94.42-35.43z" fill="#fff"/><g fill="#1a1a1a"><path d="M154.44 339.13h-5.34A511.37 511.37 0 0 1 77 333c-12.47-2-33.46-6-34-10.28-.23-1.85 2.31-2.54 3.23-2.77l94.58-35.48a.995.995 0 0 1 .35-.06h17.64c.122.001.244.021.36.06L252.83 320c1.1.38 4.51 1.57 4.09 4-.89 5.07-22.26 8.84-34.92 10.64a501.17 501.17 0 0 1-67.56 4.49zM45 322.59c2.35 3.89 49.56 13.89 104.11 14.51h5.67c54.05 0 99.32-8.72 100.16-13.51 0-.2-.4-.92-2.8-1.76l-93.54-35.4h-17.28l-94.46 35.43h-.1c-.63.122-1.229.37-1.76.73zm97.1-124.312s10.54 1.75 15.06 17.83c.31-8 .91-18.53.91-18.53z"/><path d="m156.55 285.94 69.25 46.87 22.38-5.02-88.36-42.31zm-1.66-.112 59.72 48.14-16.79 1.98-45.73-50.12z"/></g><path d="M22.52 154.108s63.77 56.34 174.6 40.25c96.66-14 95.22-145.47 30.33-182.65-82.65-47.36-294.09 73.68-204.93 142.4z" fill="#fece2f"/><path d="M272.26 84.738s7.46 43.36-17.48 76.47-66.45 34.27-81.37 35.44c27.39-4 34.49-17.26 40.32-25.18s11.89-8.4 17.48-6.3 8.4-6.53 13.29-25.88 11.43-18.65 16.79-18.88 12.37-5.83 10.97-35.67z" fill="#1a1a1a"/><path d="M158.1 198.22c-38.76 0-69.48-8.62-90.22-17-29-11.77-45.23-25.65-46-26.31-24.9-19.21-28.6-44.79-10.42-72S68.08 29 111.91 13.28c47-16.89 89.28-17.77 116-2.44 16.94 9.71 30.67 26.64 38.67 47.68a119.672 119.672 0 0 1 5.74 64c-3.53 18.55-11.63 34.88-23.42 47.24-13.27 13.91-30.66 22.51-51.68 25.57a273.31 273.31 0 0 1-39.12 2.89zM180.57 1.93c-20.29 0-43.47 4.42-68 13.23C69.14 30.78 31 57.15 13.12 84c-12.39 18.56-20.71 45.66 10 69.34h.05c.16.14 16.22 14.15 45.54 26 27.06 11 71.27 22.26 128.25 14 39.13-5.69 65.89-31.64 73.42-71.21 8.42-44.25-9.84-90.34-43.43-109.58-12.39-7.08-28.23-10.62-46.38-10.62z" fill="#1a1a1a"/><path d="M175.16 196.409s-35.23 1.29-71.95-19.35c-29.72-16.7-66.46-13.27-48.61-3.15 25.88 14.69 80.46 28.09 120.56 22.5z" fill="#1a1a1a"/><path d="M70.24 150.131c18.68 2.62 75.49 1.51 91.59-43.07 16.1-44.58 57-39 73-53.87 0 0 28.41 52.86-24.75 88.3s-139.84 8.64-139.84 8.64z" fill="#fece2f"/><path d="M83.77 151.849a99.67 99.67 0 0 1-13.44-.85 101.806 101.806 0 0 1-24.6-6.9 1 1 0 0 1 .77-1.84 100.14 100.14 0 0 0 24.11 6.74c19.85 2.78 74.78.6 90.28-42.31 10.92-30.27 31.62-36.91 48.26-42.26 8.46-2.71 15.76-5.06 20.93-9.84 4.39-4 6.6-8.5 6.56-13.23-.06-8.62-7.56-15.46-7.64-15.53a1 1 0 0 1 .617-1.746c.265-.014.525.078.723.256.33.3 8.23 7.48 8.3 17 .05 5.32-2.38 10.27-7.2 14.72-5.5 5.08-13.36 7.6-21.68 10.28-17.06 5.48-36.4 11.69-47 41-7 19.28-22.65 33-45.37 39.79a120.885 120.885 0 0 1-33.62 4.72z" fill="#1a1a1a"/><path d="M184.34 108.632s6.19-13.23 15.77-20.63 4.93-9.53-2.94-6.45-16.47 11-21.22 21.63c-4.75 10.63 4.21 12.26 8.39 5.45zM214 78.54c-2 1-6.49-1.49-2.72-4.29s7-3 11.26-3.29 4.1 2.19 1.47 3.22-7.49 3.13-10.01 4.36z" fill="#fff"/></g></svg></g><g transform="translate(278.0 108.0) rotate(0.0 137.5 117.0) scale(0.6485849056603774 0.6481994459833795)"><svg width="424" height="361" viewBox="0 0 424 361"><path d="M211.5 2.5C96.1 2.5 2.5 70 2.5 153.3c0 51.5 35.8 97 90.4 124.2-14.6 31.4-44.6 70.7-78.2 80.6 52.8-8.7 111.5-26.2 144.7-58.7 17.2 3.2 34.6 4.7 52.1 4.7 115.4 0 209-67.5 209-150.8S326.9 2.5 211.5 2.5z" fill="#fff"/><path d="M14.7 360.6c-1.1 0-2.2-.8-2.4-1.9-.3-1.3.5-2.6 1.7-3 22.6-6.7 54.6-33.1 75.6-77.1C33.4 249.9 0 203.2 0 153.3c0-41.1 22.1-79.7 62.3-108.7C102.1 15.9 155.2 0 211.5 0s109.4 15.9 149.2 44.6c40.1 29 62.2 67.5 62.2 108.7S400.8 233 360.6 262c-39.9 28.8-92.9 44.6-149.2 44.6h-.3c-17.1 0-34.2-1.5-51-4.5-35.9 34.4-98.7 50.8-145.1 58.5h-.3zM211.5 5C97.6 5 5 71.5 5 153.3c0 48.6 33.3 94.2 89 121.9 1.2.6 1.7 2.1 1.2 3.3-12.7 27.3-35.2 57.6-61.1 73.4 43-8.8 93.5-24.9 123.6-54.4.6-.6 1.4-.8 2.2-.7 16.9 3.1 34.2 4.7 51.4 4.7h.3c113.9 0 206.5-66.5 206.5-148.3C418 71.5 325.4 5 211.5 5z" fill="#1a1a1a"/></svg></g><g transform="translate(335.0 119.0) rotate(0.0 82.5 82.5) scale(6.875 6.875)"><svg width="24" height="24" viewBox="0 0 24 24"><path d="M12 3c-5 0-9 4-9 9s4 9 9 9 9-4 9-9-4-9-9-9Zm-.602 7.398c.204.204.5.5 1 .801 1 .403 1.704.801 2.102 1.301.5.5.7 1.2.7 2.102 0 .796-.2 1.5-.7 2-.5.5-1.102.796-1.898.898V19H11.5v-1.5c-.8-.102-1.5-.398-2-1-.5-.5-.8-1.3-.8-2.398h2c0 .597.1 1.097.402 1.398.199.3.5.398.898.398s.602-.097.8-.398c.2-.2.302-.602.302-1a1.7 1.7 0 0 0-.301-1c-.2-.2-.5-.5-.903-.7-1-.402-1.699-.8-2.199-1.3C9.2 11 9 10.3 9 9.398c0-.796.2-1.5.7-2 .5-.5 1.1-.796 1.902-.898V5h1.097v1.602c.801.097 1.403.5 1.801 1 .398.5.7 1.296.7 2.199h-2.098c0-.5-.102-1-.301-1.301-.2-.3-.403-.398-.801-.398-.3 0-.602.097-.7.398-.1.2-.198.602-.198 1 .097.398.199.7.296.898Z"/></svg></g><g transform="translate(678.0 656.0) rotate(0.0 146.0 9.0) translate(36.661643772218156 0.0) scale(1.6590909090909092 1.5)"><svg width="132.603" height="12" viewBox="22.097 0 132.603 12"><clipPath id="e"><path d="M0 0h175.226v11.545H0z"/></clipPath><g clip-path="url(#e)"><path d="M21.988 1.438 1.238 5.726l20.792 4.579m0 0-.042-8.867L173.955 1.2l.042 8.866z" fill="#fece2f"/><path d="m175.226 10.11-.043-8.866A1.268 1.268 0 0 0 173.949 0L22.163.205a.8.8 0 0 0-.43.008L.983 4.5a1.246 1.246 0 0 0-.077 2.417c.04.011.04.011.029.051l20.8 4.539a.252.252 0 0 0 .17.005l.119.033 151.956-.2a1.166 1.166 0 0 0 .869-.356c.236-.232.371-.548.377-.879zm-20.994-1.256-.052-6.388 12.754-.024.052 6.389zm-2.53-6.4.051 6.388-128.507.179-.012-6.377zm-130.945.48.037 5.828-13.66-3.01zM169.475 8.8l-.051-6.388 3.3-.018.011 6.377z" fill="#1a1a1a"/></g></svg></g><g transform="translate(678.0 788.0) rotate(0.0 146.0 9.0) translate(36.661643772218156 0.0) scale(1.6590909090909092 1.5)"><svg width="132.603" height="12" viewBox="22.097 0 132.603 12"><clipPath id="f"><path d="M0 0h175.226v11.545H0z"/></clipPath><g clip-path="url(#f)"><path d="M21.988 1.438 1.238 5.726l20.792 4.579m0 0-.042-8.867L173.955 1.2l.042 8.866z" fill="#fece2f"/><path d="m175.226 10.11-.043-8.866A1.268 1.268 0 0 0 173.949 0L22.163.205a.8.8 0 0 0-.43.008L.983 4.5a1.246 1.246 0 0 0-.077 2.417c.04.011.04.011.029.051l20.8 4.539a.252.252 0 0 0 .17.005l.119.033 151.956-.2a1.166 1.166 0 0 0 .869-.356c.236-.232.371-.548.377-.879zm-20.994-1.256-.052-6.388 12.754-.024.052 6.389zm-2.53-6.4.051 6.388-128.507.179-.012-6.377zm-130.945.48.037 5.828-13.66-3.01zM169.475 8.8l-.051-6.388 3.3-.018.011 6.377z" fill="#1a1a1a"/></g></svg></g><g transform="translate(612.0 117.0) rotate(0.0 159.0 194.5) translate(23.54691075514874 0.0) scale(1.8928571428571428 1.897560975609756)"><svg width="155.56" height="69.036" viewBox="12.44 0 155.56 69.036"><clipPath id="g"><path d="M0 0h167.3v204.5H0z"/></clipPath><g clip-path="url(#g)" fill="#1a1a1a"><path d="M8.6 5.8c0 3.5-1.4 5.9-4.3 5.9-3 .1-4.3-2.6-4.3-5.8C0 2.6 1.4 0 4.3 0c3.1 0 4.3 2.7 4.3 5.8zm-5.9.1c0 2.6.6 3.9 1.6 3.9s1.6-1.3 1.6-3.9S5.4 2 4.3 2c-1 0-1.6 1.3-1.6 3.9zm.9 14.2-2.2 1-.4-2 3-1.4h2.2v11.4H3.6zm5 20.8c0 3.5-1.4 5.9-4.3 5.9S.1 44.2 0 40.9C0 37.7 1.4 35 4.3 35c3.1 0 4.3 2.8 4.3 5.9zm-5.9 0c0 2.6.6 3.9 1.6 3.9s1.6-1.3 1.6-3.9c0-2.5-.5-3.9-1.6-3.9-1 .1-1.6 1.3-1.6 3.9zm5.9 17.5c0 3.5-1.4 5.9-4.3 5.9S.1 61.7 0 58.4c0-3.3 1.4-5.9 4.3-5.9 3.1.1 4.3 2.8 4.3 5.9zm-5.9.1c0 2.6.6 3.9 1.6 3.9s1.6-1.3 1.6-3.9c0-2.5-.5-3.9-1.6-3.9-1 0-1.6 1.2-1.6 3.9zm.9 14.1-2.2 1-.4-2 3-1.4h2.2v11.4H3.6zm0 17.6-2.2 1-.4-2 3-1.4h2.2v11.4H3.6zm0 17.5-2.2 1-.4-2 3-1.4h2.2v11.4H3.6zm0 17.5-2.2 1-.4-2 3-1.4h2.2v11.4H3.6zm5 20.8c0 3.5-1.4 5.9-4.3 5.9S.1 149.3 0 146c0-3.3 1.4-5.9 4.3-5.9 3.1.1 4.3 2.8 4.3 5.9zm-5.9.1c0 2.6.6 3.9 1.6 3.9s1.6-1.3 1.6-3.9c0-2.5-.5-3.9-1.6-3.9-1 0-1.6 1.2-1.6 3.9zm5.9 17.4c0 3.5-1.4 5.9-4.3 5.9s-4.2-2.6-4.3-5.9c0-3.3 1.4-5.9 4.3-5.9 3.1.1 4.3 2.8 4.3 5.9zm-5.9.1c0 2.6.6 3.9 1.6 3.9s1.6-1.3 1.6-3.9c0-2.5-.5-3.9-1.6-3.9-1 0-1.6 1.2-1.6 3.9zM8.6 181c0 3.5-1.4 5.9-4.3 5.9S.1 184.3 0 181c0-3.3 1.4-5.9 4.3-5.9 3.1.1 4.3 2.8 4.3 5.9zm-5.9.1c0 2.6.6 3.9 1.6 3.9s1.6-1.3 1.6-3.9c0-2.5-.5-3.9-1.6-3.9-1 0-1.6 1.3-1.6 3.9zm.9 14.2-2.2 1-.4-2 3-1.4h2.2v11.4H3.6zM16.8 2.6l-2.2 1-.4-2 3-1.4h2.2v11.4h-2.6zm0 17.5-2.2 1-.4-2 3-1.4h2.2v11.4h-2.6zm5 20.8c0 3.5-1.4 5.9-4.3 5.9s-4.2-2.6-4.3-5.9c0-3.3 1.4-5.9 4.3-5.9 3.1 0 4.3 2.8 4.3 5.9zm-5.9 0c0 2.6.6 3.9 1.6 3.9s1.6-1.3 1.6-3.9c0-2.5-.5-3.9-1.6-3.9-.9.1-1.6 1.3-1.6 3.9zm.9 14.2-2.2 1-.4-2 3-1.4h2.2v11.4h-2.6zm5 20.8c0 3.5-1.4 5.9-4.3 5.9s-4.2-2.6-4.3-5.9c0-3.3 1.4-5.9 4.3-5.9 3.1.1 4.3 2.8 4.3 5.9zm-5.9.1c0 2.6.6 3.9 1.6 3.9s1.6-1.3 1.6-3.9c0-2.5-.5-3.9-1.6-3.9-.9 0-1.6 1.2-1.6 3.9zm5.9 17.4c0 3.5-1.4 5.9-4.3 5.9s-4.2-2.6-4.3-5.9c0-3.3 1.4-5.9 4.3-5.9 3.1.1 4.3 2.8 4.3 5.9zm-5.9.1c0 2.6.6 3.9 1.6 3.9s1.6-1.3 1.6-3.9c0-2.5-.5-3.9-1.6-3.9-.9 0-1.6 1.3-1.6 3.9zm5.9 17.5c0 3.5-1.4 5.9-4.3 5.9s-4.2-2.6-4.3-5.9c0-3.3 1.4-5.9 4.3-5.9 3.1 0 4.3 2.7 4.3 5.9zm-5.9 0c0 2.6.6 3.9 1.6 3.9s1.6-1.3 1.6-3.9c0-2.5-.5-3.9-1.6-3.9-.9 0-1.6 1.3-1.6 3.9zm.9 14.2-2.2 1-.4-2 3-1.4h2.2v11.4h-2.6zm5 20.8c0 3.5-1.4 5.9-4.3 5.9s-4.2-2.6-4.3-5.9c0-3.3 1.4-5.9 4.3-5.9 3.1.1 4.3 2.8 4.3 5.9zm-5.9.1c0 2.6.6 3.9 1.6 3.9s1.6-1.3 1.6-3.9c0-2.5-.5-3.9-1.6-3.9-.9 0-1.6 1.2-1.6 3.9zm.9 14.1-2.2 1-.4-2 3-1.4h2.2v11.4h-2.6zm0 17.6-2.2 1-.4-2 3-1.4h2.2v11.4h-2.6zm0 17.5-2.2 1-.4-2 3-1.4h2.2v11.4h-2.6zM35 5.8c0 3.5-1.4 5.9-4.3 5.9s-4.2-2.6-4.3-5.9c0-3.3 1.4-5.9 4.3-5.9C33.8 0 35 2.7 35 5.8zm-5.9.1c0 2.6.6 3.9 1.6 3.9s1.6-1.3 1.6-3.9c0-2.5-.5-3.9-1.6-3.9-.9 0-1.6 1.3-1.6 3.9zM35 23.4c0 3.5-1.4 5.9-4.3 5.9s-4.2-2.6-4.3-5.9c0-3.3 1.4-5.9 4.3-5.9 3.1 0 4.3 2.7 4.3 5.9zm-5.9 0c0 2.6.6 3.9 1.6 3.9s1.6-1.3 1.6-3.9c0-2.5-.5-3.9-1.6-3.9-.9 0-1.6 1.3-1.6 3.9zm.9 14.2-2.2 1-.4-2 3-1.4h2.2v11.4H30zm5 20.8c0 3.5-1.4 5.9-4.3 5.9s-4.2-2.6-4.3-5.9c0-3.3 1.4-5.9 4.3-5.9 3.1.1 4.3 2.8 4.3 5.9zm-5.9.1c0 2.6.6 3.9 1.6 3.9s1.6-1.3 1.6-3.9c0-2.5-.5-3.9-1.6-3.9-.9 0-1.6 1.2-1.6 3.9zM35 75.9c0 3.5-1.4 5.9-4.3 5.9s-4.2-2.6-4.3-5.9c0-3.3 1.4-5.9 4.3-5.9 3.1.1 4.3 2.8 4.3 5.9zm-5.9.1c0 2.6.6 3.9 1.6 3.9s1.6-1.3 1.6-3.9c0-2.5-.5-3.9-1.6-3.9-.9 0-1.6 1.2-1.6 3.9zM48.3 5.8c0 3.5-1.4 5.9-4.3 5.9s-4.2-2.6-4.3-5.9C39.7 2.6 41.1 0 44 0c3.1 0 4.3 2.7 4.3 5.8zm-5.9.1c0 2.6.6 3.9 1.6 3.9s1.6-1.3 1.6-3.9S45.1 2 44 2c-1 0-1.7 1.3-1.6 3.9zm5.9 17.5c0 3.5-1.4 5.9-4.3 5.9s-4.2-2.6-4.3-5.9c0-3.3 1.4-5.9 4.3-5.9 3.1 0 4.3 2.7 4.3 5.9zm-5.9 0c0 2.6.6 3.9 1.6 3.9s1.6-1.3 1.6-3.9c0-2.5-.5-3.9-1.6-3.9-1 0-1.7 1.3-1.6 3.9zm5.9 17.5c0 3.5-1.4 5.9-4.3 5.9s-4.2-2.6-4.3-5.9c0-3.3 1.4-5.9 4.3-5.9 3.1 0 4.3 2.8 4.3 5.9zm-5.9 0c0 2.6.6 3.9 1.6 3.9s1.6-1.3 1.6-3.9c0-2.5-.5-3.9-1.6-3.9-1 .1-1.7 1.3-1.6 3.9zm.9 14.2-2.2 1-.4-2 3-1.4h2.2v11.4h-2.6zM56.5 2.6l-2.2 1-.4-2 3-1.4h2.2v11.4h-2.6zm0 17.5-2.2 1-.4-2 3-1.4h2.2v11.4h-2.6zm0 17.5-2.2 1-.4-2 3-1.4h2.2v11.4h-2.6zm5 20.8c0 3.5-1.4 5.9-4.3 5.9s-4.2-2.6-4.3-5.9c0-3.3 1.4-5.9 4.3-5.9 3.1.1 4.3 2.8 4.3 5.9zm-5.9.1c0 2.6.6 3.9 1.6 3.9s1.6-1.3 1.6-3.9c0-2.5-.5-3.9-1.6-3.9-1 0-1.6 1.2-1.6 3.9zM69.7 2.6l-2.2 1-.4-2 3-1.4h2.2v11.4h-2.6zm5 20.8c0 3.5-1.4 5.9-4.3 5.9s-4.2-2.6-4.3-5.9c0-3.3 1.4-5.9 4.3-5.9 3.1 0 4.3 2.7 4.3 5.9zm-5.9 0c0 2.6.6 3.9 1.6 3.9S72 26 72 23.4c0-2.5-.5-3.9-1.6-3.9-.9 0-1.6 1.3-1.6 3.9zm5.9 17.5c0 3.5-1.4 5.9-4.3 5.9s-4.2-2.6-4.3-5.9c0-3.3 1.4-5.9 4.3-5.9 3.1 0 4.3 2.8 4.3 5.9zm-5.9 0c0 2.6.6 3.9 1.6 3.9s1.6-1.3 1.6-3.9c0-2.5-.5-3.9-1.6-3.9-.9.1-1.6 1.3-1.6 3.9zm.9 14.2-2.2 1-.4-2 3-1.4h2.2v11.4h-2.6zM87.9 5.8c0 3.5-1.4 5.9-4.3 5.9s-4.2-2.6-4.3-5.9c0-3.3 1.4-5.9 4.3-5.9 3.2.1 4.3 2.8 4.3 5.9zm-5.9.1c0 2.6.6 3.9 1.6 3.9s1.6-1.3 1.6-3.9c0-2.5-.5-3.9-1.6-3.9-.9 0-1.6 1.3-1.6 3.9zm.9 14.2-2.2 1-.4-2 3-1.4h2.2v11.4h-2.6zm5 20.8c0 3.5-1.4 5.9-4.3 5.9s-4.2-2.6-4.3-5.9c0-3.3 1.4-5.9 4.3-5.9 3.2 0 4.3 2.8 4.3 5.9zm-5.9 0c0 2.6.6 3.9 1.6 3.9s1.6-1.3 1.6-3.9c0-2.5-.5-3.9-1.6-3.9-.9.1-1.6 1.3-1.6 3.9zm5.9 17.5c0 3.5-1.4 5.9-4.3 5.9s-4.2-2.6-4.3-5.9c0-3.3 1.4-5.9 4.3-5.9 3.2.1 4.3 2.8 4.3 5.9zm-5.9.1c0 2.6.6 3.9 1.6 3.9s1.6-1.3 1.6-3.9c0-2.5-.5-3.9-1.6-3.9-.9 0-1.6 1.2-1.6 3.9zM96.2 2.6l-2.2 1-.4-2 3-1.4h2.2v11.4h-2.6zm0 17.5-2.2 1-.4-2 3-1.4h2.2v11.4h-2.6zm0 17.5-2.2 1-.4-2 3-1.4h2.2v11.4h-2.6zm5 20.8c0 3.5-1.4 5.9-4.3 5.9s-4.2-2.6-4.3-5.9c0-3.3 1.4-5.9 4.3-5.9 3.1.1 4.3 2.8 4.3 5.9zm-5.9.1c0 2.6.6 3.9 1.6 3.9s1.6-1.3 1.6-3.9c0-2.5-.5-3.9-1.6-3.9-1 0-1.6 1.2-1.6 3.9zm14.1-55.9-2.2 1-.4-2 3-1.4h2.2v11.4h-2.6zm0 17.5-2.2 1-.4-2 3-1.4h2.2v11.4h-2.6zm5 20.8c0 3.5-1.4 5.9-4.3 5.9s-4.2-2.6-4.3-5.9c0-3.3 1.4-5.9 4.3-5.9 3.1 0 4.3 2.8 4.3 5.9zm-5.9 0c0 2.6.6 3.9 1.6 3.9s1.6-1.3 1.6-3.9c0-2.5-.5-3.9-1.6-3.9-1 .1-1.6 1.3-1.6 3.9zm.9 14.2-2.2 1-.4-2 3-1.4h2.2v11.4h-2.6zm5 20.8c0 3.5-1.4 5.9-4.3 5.9s-4.2-2.6-4.3-5.9c0-3.3 1.4-5.9 4.3-5.9 3.1.1 4.3 2.8 4.3 5.9zm-5.9.1c0 2.6.6 3.9 1.6 3.9s1.6-1.3 1.6-3.9c0-2.5-.5-3.9-1.6-3.9-1 0-1.6 1.2-1.6 3.9zm5.9 17.4c0 3.5-1.4 5.9-4.3 5.9s-4.2-2.6-4.3-5.9c0-3.3 1.4-5.9 4.3-5.9 3.1.1 4.3 2.8 4.3 5.9zm-5.9.1c0 2.6.6 3.9 1.6 3.9s1.6-1.3 1.6-3.9c0-2.5-.5-3.9-1.6-3.9-1 0-1.6 1.3-1.6 3.9zm19.1-87.7c0 3.5-1.4 5.9-4.3 5.9s-4.2-2.6-4.3-5.9c0-3.3 1.4-5.9 4.3-5.9 3.1.1 4.3 2.8 4.3 5.9zm-5.9.1c0 2.6.6 3.9 1.6 3.9s1.6-1.3 1.6-3.9c0-2.5-.5-3.9-1.6-3.9-.9 0-1.6 1.3-1.6 3.9zm.9 14.2-2.2 1-.4-2 3-1.4h2.2v11.4h-2.6zm0 17.5-2.2 1-.4-2 3-1.4h2.2v11.4h-2.6zm5 20.8c0 3.5-1.4 5.9-4.3 5.9s-4.2-2.6-4.3-5.9c0-3.3 1.4-5.9 4.3-5.9 3.1.1 4.3 2.8 4.3 5.9zm-5.9.1c0 2.6.6 3.9 1.6 3.9s1.6-1.3 1.6-3.9c0-2.5-.5-3.9-1.6-3.9-.9 0-1.6 1.2-1.6 3.9zm5.9 17.4c0 3.5-1.4 5.9-4.3 5.9s-4.2-2.6-4.3-5.9c0-3.3 1.4-5.9 4.3-5.9 3.1.1 4.3 2.8 4.3 5.9zm-5.9.1c0 2.6.6 3.9 1.6 3.9s1.6-1.3 1.6-3.9c0-2.5-.5-3.9-1.6-3.9-.9 0-1.6 1.2-1.6 3.9zm.9 14.2-2.2 1-.4-2 3-1.4h2.2v11.4h-2.6zm0 17.5-2.2 1-.4-2 3-1.4h2.2v11.4h-2.6zm0 17.5-2.2 1-.4-2 3-1.4h2.2v11.4h-2.6zm5 20.8c0 3.5-1.4 5.9-4.3 5.9s-4.2-2.6-4.3-5.9c0-3.3 1.4-5.9 4.3-5.9 3.1.1 4.3 2.8 4.3 5.9zm-5.9.1c0 2.6.6 3.9 1.6 3.9s1.6-1.3 1.6-3.9c0-2.5-.5-3.9-1.6-3.9-.9 0-1.6 1.2-1.6 3.9zm.9 14.1-2.2 1-.4-2 3-1.4h2.2v11.4h-2.6zm5 20.8c0 3.5-1.4 5.9-4.3 5.9s-4.2-2.6-4.3-5.9c0-3.3 1.4-5.9 4.3-5.9 3.1.1 4.3 2.8 4.3 5.9zm-5.9.1c0 2.6.6 3.9 1.6 3.9s1.6-1.3 1.6-3.9c0-2.5-.5-3.9-1.6-3.9-.9 0-1.6 1.3-1.6 3.9zm.9 14.2-2.2 1-.4-2 3-1.4h2.2v11.4h-2.6zM140.9 5.8c0 3.5-1.4 5.9-4.3 5.9s-4.2-2.6-4.3-5.9c0-3.3 1.4-5.9 4.3-5.9 3.1.1 4.3 2.8 4.3 5.9zm-5.9.1c0 2.6.6 3.9 1.6 3.9s1.6-1.3 1.6-3.9c0-2.5-.5-3.9-1.6-3.9-1 0-1.7 1.3-1.6 3.9zm.8 14.2-2.2 1-.4-2 3-1.4h2.2v11.4h-2.6zm0 17.5-2.2 1-.4-2 3-1.4h2.2v11.4h-2.6zm0 17.5-2.2 1-.4-2 3-1.4h2.2v11.4h-2.6zm5.1 20.8c0 3.5-1.4 5.9-4.3 5.9s-4.2-2.6-4.3-5.9c0-3.3 1.4-5.9 4.3-5.9 3.1.1 4.3 2.8 4.3 5.9zm-5.9.1c0 2.6.6 3.9 1.6 3.9s1.6-1.3 1.6-3.9c0-2.5-.5-3.9-1.6-3.9-1 0-1.7 1.2-1.6 3.9zm.8 14.2-2.2 1-.4-2 3-1.4h2.2v11.4h-2.6zm5.1 20.8c0 3.5-1.4 5.9-4.3 5.9s-4.2-2.6-4.3-5.9c0-3.3 1.4-5.9 4.3-5.9 3.1 0 4.3 2.7 4.3 5.9zm-5.9 0c0 2.6.6 3.9 1.6 3.9s1.6-1.3 1.6-3.9c0-2.5-.5-3.9-1.6-3.9-1 0-1.7 1.3-1.6 3.9zm5.9 17.5c0 3.5-1.4 5.9-4.3 5.9s-4.2-2.6-4.3-5.9c0-3.3 1.4-5.9 4.3-5.9 3.1 0 4.3 2.8 4.3 5.9zm-5.9 0c0 2.6.6 3.9 1.6 3.9s1.6-1.3 1.6-3.9c0-2.5-.5-3.9-1.6-3.9-1 .1-1.7 1.3-1.6 3.9zm5.9 17.5c0 3.5-1.4 5.9-4.3 5.9s-4.2-2.6-4.3-5.9c0-3.3 1.4-5.9 4.3-5.9 3.1.1 4.3 2.8 4.3 5.9zm-5.9.1c0 2.6.6 3.9 1.6 3.9s1.6-1.3 1.6-3.9c0-2.5-.5-3.9-1.6-3.9-1 0-1.7 1.2-1.6 3.9zm.8 14.1-2.2 1-.4-2 3-1.4h2.2v11.4h-2.6zm0 17.6-2.2 1-.4-2 3-1.4h2.2v11.4h-2.6zm5.1 20.8c0 3.5-1.4 5.9-4.3 5.9s-4.2-2.6-4.3-5.9c0-3.3 1.4-5.9 4.3-5.9 3.1 0 4.3 2.7 4.3 5.9zm-5.9 0c0 2.6.6 3.9 1.6 3.9s1.6-1.3 1.6-3.9c0-2.5-.5-3.9-1.6-3.9-1 0-1.7 1.3-1.6 3.9zm14.1-196-2.2 1-.4-2 3-1.4h2.2v11.4h-2.6zm0 17.5-2.2 1-.4-2 3-1.4h2.2v11.4h-2.6zm5 20.8c0 3.5-1.4 5.9-4.3 5.9s-4.2-2.6-4.3-5.9c0-3.3 1.4-5.9 4.3-5.9 3.1 0 4.3 2.8 4.3 5.9zm-5.9 0c0 2.6.6 3.9 1.6 3.9s1.6-1.3 1.6-3.9c0-2.5-.5-3.9-1.6-3.9-1 .1-1.6 1.3-1.6 3.9zm.9 14.2-2.2 1-.4-2 3-1.4h2.2v11.4h-2.6zm5 20.8c0 3.5-1.4 5.9-4.3 5.9s-4.2-2.6-4.3-5.9c0-3.3 1.4-5.9 4.3-5.9 3.1.1 4.3 2.8 4.3 5.9zm-5.9.1c0 2.6.6 3.9 1.6 3.9s1.6-1.3 1.6-3.9c0-2.5-.5-3.9-1.6-3.9-1 0-1.6 1.2-1.6 3.9zm5.9 17.4c0 3.5-1.4 5.9-4.3 5.9s-4.2-2.6-4.3-5.9c0-3.3 1.4-5.9 4.3-5.9 3.1.1 4.3 2.8 4.3 5.9zm-5.9.1c0 2.6.6 3.9 1.6 3.9s1.6-1.3 1.6-3.9c0-2.5-.5-3.9-1.6-3.9-1 0-1.6 1.3-1.6 3.9zm.9 14.2-2.2 1-.4-2 3-1.4h2.2v11.4h-2.6zm0 17.5-2.2 1-.4-2 3-1.4h2.2v11.4h-2.6zm0 17.5-2.2 1-.4-2 3-1.4h2.2v11.4h-2.6zm0 17.5-2.2 1-.4-2 3-1.4h2.2v11.4h-2.6zm5 20.8c0 3.5-1.4 5.9-4.3 5.9s-4.2-2.6-4.3-5.9c0-3.3 1.4-5.9 4.3-5.9 3.1.1 4.3 2.8 4.3 5.9zm-5.9.1c0 2.6.6 3.9 1.6 3.9s1.6-1.3 1.6-3.9c0-2.5-.5-3.9-1.6-3.9-1 0-1.6 1.3-1.6 3.9zm5.9 17.5c0 3.5-1.4 5.9-4.3 5.9s-4.2-2.6-4.3-5.9c0-3.3 1.4-5.9 4.3-5.9 3.1 0 4.3 2.7 4.3 5.9zm-5.9 0c0 2.6.6 3.9 1.6 3.9s1.6-1.3 1.6-3.9c0-2.5-.5-3.9-1.6-3.9-1 0-1.6 1.3-1.6 3.9zM167.3 5.8c0 3.5-1.4 5.9-4.3 5.9s-4.2-2.6-4.3-5.9c0-3.3 1.4-5.9 4.3-5.9 3.1.1 4.3 2.8 4.3 5.9zm-5.9.1c0 2.6.6 3.9 1.6 3.9s1.6-1.3 1.6-3.9c0-2.5-.5-3.9-1.6-3.9-.9 0-1.6 1.3-1.6 3.9zm.9 14.2-2.2 1-.4-2 3-1.4h2.2v11.4h-2.6zm0 17.5-2.2 1-.4-2 3-1.4h2.2v11.4h-2.6zm0 17.5-2.2 1-.4-2 3-1.4h2.2v11.4h-2.6zm5 20.8c0 3.5-1.4 5.9-4.3 5.9s-4.2-2.6-4.3-5.9c0-3.3 1.4-5.9 4.3-5.9 3.1.1 4.3 2.8 4.3 5.9zm-5.9.1c0 2.6.6 3.9 1.6 3.9s1.6-1.3 1.6-3.9c0-2.5-.5-3.9-1.6-3.9-.9 0-1.6 1.2-1.6 3.9zm5.9 17.4c0 3.5-1.4 5.9-4.3 5.9s-4.2-2.6-4.3-5.9c0-3.3 1.4-5.9 4.3-5.9 3.1.1 4.3 2.8 4.3 5.9zm-5.9.1c0 2.6.6 3.9 1.6 3.9s1.6-1.3 1.6-3.9c0-2.5-.5-3.9-1.6-3.9-.9 0-1.6 1.3-1.6 3.9zm.9 14.2-2.2 1-.4-2 3-1.4h2.2v11.4h-2.6zm5 20.8c0 3.5-1.4 5.9-4.3 5.9s-4.2-2.6-4.3-5.9c0-3.3 1.4-5.9 4.3-5.9 3.1 0 4.3 2.8 4.3 5.9zm-5.9 0c0 2.6.6 3.9 1.6 3.9s1.6-1.3 1.6-3.9c0-2.5-.5-3.9-1.6-3.9-.9.1-1.6 1.3-1.6 3.9zm5.9 17.5c0 3.5-1.4 5.9-4.3 5.9s-4.2-2.6-4.3-5.9c0-3.3 1.4-5.9 4.3-5.9 3.1.1 4.3 2.8 4.3 5.9zm-5.9.1c0 2.6.6 3.9 1.6 3.9s1.6-1.3 1.6-3.9c0-2.5-.5-3.9-1.6-3.9-.9 0-1.6 1.2-1.6 3.9zm5.9 17.4c0 3.5-1.4 5.9-4.3 5.9s-4.2-2.6-4.3-5.9c0-3.3 1.4-5.9 4.3-5.9 3.1.1 4.3 2.8 4.3 5.9zm-5.9.1c0 2.6.6 3.9 1.6 3.9s1.6-1.3 1.6-3.9c0-2.5-.5-3.9-1.6-3.9-.9 0-1.6 1.2-1.6 3.9zm.9 14.2-2.2 1-.4-2 3-1.4h2.2v11.4h-2.6zm0 17.5-2.2 1-.4-2 3-1.4h2.2v11.4h-2.6z"/></g></svg></g><g transform="translate(138.0 261.0) rotate(0.0 319.0 343.0) scale(1.24853228962818 1.2472727272727273)"><svg width="511" height="550" viewBox="0 0 511 550"><clipPath id="h"><path d="M0 0h510.09v549.01H0z"/></clipPath><g clip-path="url(#h)"><path d="m38.28 117.801-2.04-11.1 27.89-4.98.96 7.27z" fill="#1a1a1a"/><path d="M38.28 118.801a.91.91 0 0 1-.51-.14 1 1 0 0 1-.47-.68l-2-11.1a1.001 1.001 0 0 1 .81-1.17l27.89-5a.997.997 0 0 1 .77.18.996.996 0 0 1 .4.68l1 7.27a.999.999 0 0 1-.68 1.08l-26.81 8.81a.833.833 0 0 1-.4.07zm-.88-11.3 1.65 9 24.95-8.2-.72-5.41z" fill="#1a1a1a"/><path d="M66.87 22.82C61.22 14.66 26-4.69 32.9 55a1.257 1.257 0 0 0 0 .14h-.12a6.71 6.71 0 1 0 0 13.42 6.84 6.84 0 0 0 2.89-.65c4.61 12.67 11.18 56.23 11.18 56.23l31.41 3.06L66.9 89.47a34.73 34.73 0 0 0 6.83-1.18C104.92 79 72.53 31 66.87 22.82z" fill="#fece2f"/><path d="M78.27 128.18h-.1l-31.41-3.07a1.002 1.002 0 0 1-.89-.84c-.06-.43-6.29-41.53-10.8-55.08a7.64 7.64 0 0 1-2.28.35 7.71 7.71 0 0 1-1-15.36c-3.23-29.29 4.09-38.5 10.84-41 9.81-3.69 22 4.72 25.06 9.13 7.73 11.17 25.08 39 19.22 55.66-2 5.55-6.29 9.36-12.9 11.33-1.9.54-3.844.908-5.81 1.1l11 36.54a1 1 0 0 1-1 1.29zm-30.54-5L76.88 126 66 89.76a1 1 0 0 1 .12-.84 1 1 0 0 1 .74-.44c2.246-.166 4.47-.55 6.64-1.15 6-1.77 9.85-5.16 11.58-10.07C90.75 61 72 31.91 66.05 23.39c-2.7-3.9-14-11.66-22.7-8.39-6.15 2.32-12.79 11.12-9.46 39.88v.18a1 1 0 0 1-.27.76 1.12 1.12 0 0 1-.75.31h-.11A5.71 5.71 0 1 0 35.25 67a1 1 0 0 1 .81 0 1.002 1.002 0 0 1 .56.58c4.31 11.81 10.18 49.54 11.11 55.62z" fill="#1a1a1a"/><path d="M74.44 21.86S75.58 20 76.35 6.92c.94-16-35.62 5.37-46.72 5.75C18.78 13 14 38.43 28.39 54.48a2.612 2.612 0 0 0 2.37.82 9.101 9.101 0 0 1 7.14 2.09c4.82 3.86 4.08-.35 3.19-2.27-1.09-2.33-1.69-12.4.79-20.24 4.98-15.7 27.19 2.68 32.56-13.02z" fill="#1a1a1a"/><path d="M40.87 60c-1.19 0-2.56-1-3.6-1.79a8.09 8.09 0 0 0-6.35-1.89 3.63 3.63 0 0 1-3.28-1.13c-9.85-11-11-26.64-7.13-35.78 2-4.77 5.34-7.57 9.08-7.7 3.5-.12 9.91-2.52 16.7-5 11.76-4.4 23.92-8.94 28.89-5.27C76.77 2.52 77.5 4.42 77.35 7c-.68 11.63-1.67 14.59-2 15.27-3 8.53-10.65 7.78-17.45 7.12s-12.83-1.26-15.07 5.81C40.37 43 41.05 52.68 42 54.7c.07.15 1.65 3.59 0 4.89a1.79 1.79 0 0 1-1.13.41zM32 54.2a10.3 10.3 0 0 1 6.51 2.41A6.4 6.4 0 0 0 40.73 58a5.22 5.22 0 0 0-.55-2.4c-1.23-2.65-1.75-13.07.75-21 2.73-8.62 10.4-7.87 17.17-7.2 7 .67 13 1.26 15.39-5.84a.772.772 0 0 1 .07-.16c.07-.15 1.09-2.52 1.79-14.51C75.46 5 75 3.71 74 3c-4.1-3-16.8 1.73-27 5.54-6.94 2.6-13.5 5-17.32 5.18-3 .1-5.57 2.4-7.31 6.48-3.65 8.58-2.52 23.29 6.78 33.66a1.618 1.618 0 0 0 1.47.5A9.286 9.286 0 0 1 32 54.2zm344.15 213.589s54.44 38.68 69 39.9 7.6-.61 7.6-.61l-19 25.17-77-41.4z" fill="#1a1a1a"/><path d="M433.75 333.249a1 1 0 0 1-.47-.12l-77-41.4a.996.996 0 0 1-.505-.691 1.001 1.001 0 0 1 .215-.829l19.4-23.07a1.003 1.003 0 0 1 1.35-.17c.54.39 54.38 38.54 68.5 39.73 3 .25 4.95.36 6.25.4l.47-.62a1.002 1.002 0 0 1 1.05-.37c1.26.34 2.59.78 2.39 1.9-.11.66-.19 1.1-2.93 1.11l-17.91 23.73a1.006 1.006 0 0 1-.81.4zm-75.45-42.69 75.17 40.44 16.53-22c-1.3-.06-2.92-.18-4.94-.35-13.9-1.17-61.86-34.7-68.75-39.55z" fill="#1a1a1a"/><path d="m434 334.301 23.63 20.46 16-16.37-2.11-7.78s29.12-14.8 37.56-44.68c-8-4.09-12.24.41-21.95 6.14s-30.9 16.46-43.35 15.12a109.409 109.409 0 0 1-9.78 27.11z" fill="#fece2f"/><path d="M457.6 355.759a.998.998 0 0 1-.66-.24l-23.63-20.47a1 1 0 0 1-.22-1.24 108.549 108.549 0 0 0 9.72-26.81 1 1 0 0 1 1.09-.78c10.82 1.18 29.79-7.34 42.73-15 1.63-1 3.07-1.86 4.46-2.74 6.79-4.27 11.28-7.09 18.45-3.43a1.003 1.003 0 0 1 .51 1.16c-7.72 27.32-32.77 42.36-37.35 44.92l1.9 7a1.002 1.002 0 0 1-.25 1l-16 16.37a.998.998 0 0 1-.75.26zm-22.38-21.7 22.32 19.33 15-15.29-2-7.22a1 1 0 0 1 .51-1.16c.29-.14 28.31-14.7 36.82-43.26-5.72-2.59-9.35-.31-15.74 3.7-1.33.84-2.85 1.8-4.5 2.77-2.87 1.7-28 16.27-43.07 15.33a113.108 113.108 0 0 1-9.34 25.8zm-116.65 94.56s1.84 65.38 9.77 77.38 5.15 5.45 5.15 5.45l-32.15.87-12.76-75.08z" fill="#1a1a1a"/><path d="M333.79 514.22c-.41 0-1-.37-2.09-1.77l-30.33.82a.998.998 0 0 1-1-.83l-12.77-75.08a.999.999 0 0 1 .71-1.13l30-8.57a1.002 1.002 0 0 1 1.165.492c.071.136.111.285.115.438 0 .65 1.92 65.27 9.6 76.81 1.62 2.44 2.73 4 3.49 5h.8a1.004 1.004 0 0 1 .92.61c.5 1.17 1 2.47 0 3a1.26 1.26 0 0 1-.61.21zm-44.08-76.33 12.47 73.34 28.05-.76c-.74-1-1.64-2.34-2.73-4-7.46-11.22-9.58-67.08-9.89-76.58z" fill="#1a1a1a"/><path d="m299.8 513.691-2.19 30.65 23.17 2.26 5-6.39s30.84 15.11 60.36 3.27c-1.58-8.66-7.83-9.13-18.45-13.06s-35.31-17.42-38.69-26.28a131.786 131.786 0 0 1-29.2 9.55z" fill="#fece2f"/><path d="M361.77 549.001a93.235 93.235 0 0 1-35.65-7.52l-4.56 5.77a1.009 1.009 0 0 1-.88.37l-23.16-2.26a1 1 0 0 1-.9-1.06l2.19-30.66a.997.997 0 0 1 .82-.91c10-2.022 19.731-5.197 29-9.46a.999.999 0 0 1 .8 0 .996.996 0 0 1 .56.57c3.11 8.23 26.78 21.5 38.12 25.69 1.77.66 3.39 1.21 5 1.74 7.65 2.59 12.71 4.3 14.12 12.08a1.002 1.002 0 0 1-.61 1.11 66.47 66.47 0 0 1-24.85 4.54zm-35.95-9.76c.153.002.303.04.44.11.3.14 30.26 14.5 58.77 3.53-1.39-5.93-5.47-7.31-12.63-9.74-1.51-.51-3.22-1.09-5-1.75-9.78-3.62-34-16.49-38.85-25.89a135.413 135.413 0 0 1-27.78 9l-2.07 28.92 21.65 2.11 4.71-6a.994.994 0 0 1 .76-.32z" fill="#1a1a1a"/><path d="M99 130.519a2.636 2.636 0 0 1 1.731-1.42 2.65 2.65 0 0 1 2.199.42c19 13.84 46.82 40.31 97.14 48.57 56.35 9.24 117.56-16.74 117.56-16.74l9.49 17.18s-101.66 53.57-164.49 39.1c-62.83-14.47-105.79-45.63-105.79-45.63 22.16-19.9 32.6-22 42.16-41.48z" fill="#fff"/><path d="M159.2 197.65s-8.68-17.87-10.47-24.26 6.13-3.83 13 4.34 19.4 16.85 24.25 18.13-4.85-14 3.06-12.51 16.34 6.89 23.49 6.38 4.6-4.08 17.88-4.34 27.32-3.32 34.72-8.93C252.9 178 186 193.31 126.87 146.65c-.87-.8-1.7-1.56-2.5-2.27a2.642 2.642 0 0 0-4.312 1.383 2.638 2.638 0 0 0 .202 1.767l19.79 36.59z" fill="#fece2f"/><path d="M186.18 221.11a106.86 106.86 0 0 1-23.8-2.47c-62.3-14.35-105.7-45.51-106.13-45.82a1.003 1.003 0 0 1-.336-1.197.998.998 0 0 1 .256-.363c7.27-6.52 13.19-11.07 18.41-15.08 10.35-8 17.18-13.21 23.5-26.1a3.643 3.643 0 0 1 2.398-1.93 3.645 3.645 0 0 1 3.022.59c2.69 2 5.57 4.19 8.62 6.54 19 14.69 45.11 34.8 88.1 41.85 55.41 9.08 116.39-16.41 117-16.67a1.005 1.005 0 0 1 1.27.44l9.51 17.17a.99.99 0 0 1 .083.771.994.994 0 0 1-.493.599c-.92.48-79.9 41.67-141.41 41.67zm-127.74-49.2c6.88 4.74 47.76 31.74 104.39 44.78 58.62 13.49 152.66-33.32 162.9-38.55l-8.56-15.5c-7.57 3.05-64.84 25.06-117.28 16.46-43.48-7.13-69.78-27.42-89-42.23-3-2.35-5.91-4.56-8.58-6.51a1.644 1.644 0 0 0-1.37-.27 1.605 1.605 0 0 0-1.07.87c-6.53 13.31-13.51 18.68-24.09 26.8-4.95 3.82-10.55 8.12-17.34 14.15z" fill="#1a1a1a"/><path d="M192.39 243.22 96.61 321.4s-79-110.55-77.5-182.83c.011-.438.128-.867.34-1.25a48.605 48.605 0 0 1 21-20.51c4.23-2.07 14-7.37 21.77-4.48a2.45 2.45 0 0 1 1.19 1c3 4.45 5.87 9 8.11 12.62.06.1.12.21.19.31 1.48-3.9 3.24-7.18 4.11-9.65a2.631 2.631 0 0 1 3.3-1.61c24.18 7.67 45.13 23 60.81 67.37 27.45 16.23 52.46 60.85 52.46 60.85z" fill="#fff"/><path d="M96.61 322.4h-.13a1.004 1.004 0 0 1-.68-.41c-.8-1.12-79.19-111.66-77.69-183.44.019-.6.18-1.186.47-1.71A49.865 49.865 0 0 1 40 115.91l.84-.41c4.55-2.26 14-7 21.72-4.11a3.503 3.503 0 0 1 1.67 1.35c2.37 3.51 4.93 7.46 7.28 11.27.55-1.33 1.12-2.58 1.64-3.72.7-1.55 1.31-2.89 1.72-4a3.604 3.604 0 0 1 1.8-2.088 3.601 3.601 0 0 1 2.75-.202c20.78 6.59 44.31 19.78 61.33 67.65C168 198 193 242.29 193.26 242.73A1.001 1.001 0 0 1 193 244l-95.75 78.17c-.18.149-.406.23-.64.23zM57.28 112.49c-5.86 0-12.14 3.12-15.52 4.8l-.85.42a47.896 47.896 0 0 0-20.59 20.1c-.129.24-.2.507-.21.78-1.42 67.76 69.33 170.8 76.7 181.35l94.29-77c-3.37-5.83-26.68-45-51.68-59.79a.999.999 0 0 1-.44-.53c-16.73-47.31-39.8-60.29-60.17-66.75a1.641 1.641 0 0 0-2 1c-.43 1.23-1.06 2.6-1.78 4.19s-1.58 3.49-2.34 5.47a.997.997 0 0 1-.85.64 1.004 1.004 0 0 1-.94-.48l-.18-.3c-2.57-4.19-5.44-8.66-8.09-12.58a1.618 1.618 0 0 0-.71-.6 13.238 13.238 0 0 0-4.64-.72z" fill="#1a1a1a"/><path d="M95.94 317.25s29.43 44.2 86.4 9.21 80.71-61.7 89.26-57.09S352 326.46 390 334.75c7.66-8.68 33.93-38.11 33.93-38.11s-103.77-66.4-127.55-83.76c-42.61-31.1-162.46 51.88-200.44 104.37z" fill="#fece2f"/><path d="M146.34 342.599s101.53-11.46 113.87.51 36.08 143.58 36.08 143.58l54.56-17.69s-23.23-158.69-33.65-177.66c-17.28-31.45-117.55-30.95-166.2-28.59-11.1 9.58-23.2 21.4-23.2 21.4z" fill="#fece2f"/><path d="M268.22 206.84c-31.4 8.81-46.34 16.6-88.21 43.53C165.2 260 137.76 274 137.76 274s71.1-65.25 130.46-67.16zM70.64 101.721l4.41 14.93 17.42 5.94-11.68-18.38z" fill="#fff"/><path d="M92.47 123.59a1.143 1.143 0 0 1-.32 0l-17.43-5.99a.997.997 0 0 1-.63-.66L69.68 102a1.001 1.001 0 0 1 1.2-1.25L81 103.24a.996.996 0 0 1 .6.43l11.68 18.38a.999.999 0 0 1 0 1.16 1 1 0 0 1-.81.38zm-16.61-7.72 14.24 4.86-9.94-15.65-8.07-2zm68.58 227.609a57.76 57.76 0 0 1-25.78-6 64.992 64.992 0 0 1-23.55-19.66.999.999 0 0 1 0-1.14c15.06-20.82 42.54-46.1 73.51-67.62 34.14-23.74 66.66-39 91.55-42.92 15.62-2.48 28-.47 36.79 6 23.49 17.13 126.46 83.06 127.5 83.72a.994.994 0 0 1 .45.71c.02.143.009.288-.032.427a1.01 1.01 0 0 1-.208.373c-.26.29-26.36 29.53-33.93 38.11-.122.139-.28.242-.456.297a1.006 1.006 0 0 1-.544.013c-18.76-4.09-51.86-23-69.93-34a1.003 1.003 0 0 1-.34-1.37 1.004 1.004 0 0 1 1.011-.475c.131.02.256.066.369.135 17.77 10.75 50.17 29.3 68.74 33.59 7.24-8.2 28.42-31.93 32.77-36.8-10.64-6.87-104.26-66.87-126.56-83.18-8.35-6.09-20.22-8-35.29-5.59-24.61 3.9-56.83 19-90.73 42.59-30.51 21.2-57.58 46-72.61 66.56a65.08 65.08 0 0 0 22.45 18.46c19.74 9.72 41.56 7.39 64.85-6.91 28.22-17.34 51.21-36 68-49.59 18.51-15 28.71-23.29 33.6-20.65a1.002 1.002 0 0 1-.185 1.839.99.99 0 0 1-.765-.079c-3.72-2-15.93 7.9-31.39 20.44-16.83 13.65-39.87 32.33-68.21 49.74-15.69 9.63-29.52 12.98-41.08 12.98z" fill="#1a1a1a"/><path d="M296.29 487.689a.995.995 0 0 1-1-.8c-.25-1.23-24.9-123-32.39-138.1-4.05-8.18-7.51-8.53-29.71-7.23-17.27 1-38.62 1.21-57.46 1.39-10.09.1-19.63.19-27.86.4a1 1 0 1 1 0-2c8.24-.21 17.78-.3 27.88-.4 18.82-.18 40.15-.39 57.36-1.39 22.06-1.29 26.88-1.22 31.63 8.35 7.3 14.74 29.68 124.45 32.33 137.49l52.69-17.11c-1.84-12.46-23.59-158.58-33.42-176.47-5.66-10.29-21.77-17.92-47.9-22.67a1.019 1.019 0 0 1-.364-.141 1.007 1.007 0 0 1-.303-1.385 1.011 1.011 0 0 1 1.027-.444c26.75 4.86 43.33 12.83 49.29 23.68 10.39 18.91 32.82 171.49 33.77 178a.995.995 0 0 1-.68 1.09l-54.58 17.7a1.082 1.082 0 0 1-.31.04z" fill="#1a1a1a"/><path d="M117.49 292.811s1.53 10.73 14.29 20.68c12.13 9.46 51.8 14.56 79.76-3.63-4.54 9.7-27.54 31.28-27.54 31.28-18.48.95-60 13.69-87.93-23.82 3.56-8.16 11.62-16.92 21.42-24.51zM254.82 289c-4.41 10.91-5.95 25.94 1.91 22.15 4.65-2.24 6.64-4 10.09-4.22 6.25-.31-3 12.24 2.68 9.58 14-6.51 14.55-12.38 18.38-18.77s9.7 4.34 2.05 14.56-.08 13.88-2.75 16.72c-5.74 6.13-12.45 21.26-12.45 21.26l-41-21.39c-19.1-22.52-12.36-35.05 21.09-39.89zm-92.68-46.31a1 1 0 0 1-.95-.67c-.13-.37-13.22-37.38-39.77-53.09a1.003 1.003 0 0 1-.37-.37c-12.16-22-24.19-41.67-48.35-60.34a3.621 3.621 0 0 1-1.18-4.22l7.76-19.79a1.006 1.006 0 1 1 1.87.74l-7.77 19.78a1.648 1.648 0 0 0 .54 1.9c24.38 18.83 36.52 38.64 48.75 60.71 27 16.16 40.28 53.64 40.41 54a.998.998 0 0 1-.61 1.28 1.278 1.278 0 0 1-.33.07z" fill="#1a1a1a"/><path d="M119.78 337c68.43-5.36 123.68-48.44 146.91-67.33-17.62 20.68-9.57 24.89-18.76 29.49s-15.2 12.51-17.49 19.78 27.47 17.17 22.88 20.62c-25.76-.26-50.39 3.71-61 2.29-23-3.08-52.62 6.37-72.54-4.85z" fill="#1a1a1a"/><path d="M20.09 137.91S-4.07 164.78 2 230.88s146.45 21.36 146.45 21.36l-8.1-16.24s-72.21 14.24-85.43-7.12 23-39.92 31.1-66.37c-38.81-17.39-42.38-61.05-65.93-24.6z" fill="#fff"/><path d="M14.79 145.63A21.549 21.549 0 0 1 26 135.16c8.43-3.57 13.14 5.82 2.56 18.39-8.17 9.7-14.91 4.78-17.46 12.44-2.55 7.66-3.32 17.87 4.59 11.74 7.91-6.13 4.09-2.81 8.43-5.87s13-1.79-4.34 16.34c-23.86 24.91-12.51 41.11-8.68 33.7 3.83-7.41 15.32-14.55 10.72-5.36s-10.72 32.94-.51 41.87C6.27 252.29 1.61 238.23.9 216.8c-.76-23.24 6.48-55.34 13.89-71.17z" fill="#fece2f"/><path d="M61.66 268.121c-17.24 0-33.49-2.65-44.9-10.21-9.36-6.2-14.65-15.26-15.76-26.91-6-65.8 16.19-92.47 17.14-93.58a1.003 1.003 0 1 1 1.52 1.31c-.23.27-22.66 27.27-16.66 92.06 1 11 6 19.6 14.83 25.45 34.67 23 118.52-1.37 129.2-4.61l-7.26-14.52c-7.9 1.64-68.2 13.44-81-7.28-10.79-17.42-.62-38.1 9.45-54.16a1 1 0 1 1 1.69 1.06c-14.49 23.13-17.41 39.19-9.44 52.05 12.7 20.52 79 6.36 79.65 6.21a1 1 0 0 1 1.11.53l8.14 16.27a1.01 1.01 0 0 1 .027.835.992.992 0 0 1-.617.565c-2.67.81-47.47 14.93-87.12 14.93z" fill="#1a1a1a"/><path d="m138.93 236.13 4.34 17.62 4.79-1.14c4.26-1 11.3.37 14.87 5.73s6.71 13.51 7.73 15.81 3.76 1.56 3.25-1-2.55-13-2.55-13 7.91 13.28 9.45 17.87 5.26 1.38 5.26.36c1.6 4.28 6.29 3.54 6 .48 1.72 1.91 5.55 1.63 2.58-6.51-5.57-15.28-19.1-29.74-26.65-32.88-5.26-2.23-15.4-6.75-29.07-3.34z" fill="#fece2f"/><g fill="#1a1a1a"><path d="M189.72 282.349a4.66 4.66 0 0 1-3.76-2.07 4.584 4.584 0 0 1-2.16 1.09c-.84.13-2.89.1-3.94-3.05-.88-2.63-4-8.32-6.38-12.53.56 2.85 1.17 5.93 1.41 7.17a2.772 2.772 0 0 1-1.69 3.45 2.857 2.857 0 0 1-3.45-1.86c-.18-.4-.43-1-.73-1.7-1.41-3.36-4-9.6-6.92-14-3.42-5.12-10.13-6.2-13.8-5.32l-4.79 1.14a.997.997 0 0 1-1.21-.73l-4.3-17.57a1.001 1.001 0 0 1 .73-1.21c13.58-3.39 23.78.88 29.25 3.17l.49.2c8.35 3.48 21.75 18.52 27.2 33.46 2.06 5.63 1 7.72-.27 8.47a2.798 2.798 0 0 1-2.57.08 3.165 3.165 0 0 1-2.24 1.72 3.749 3.749 0 0 1-.87.09zm-3.64-5a.998.998 0 0 1 .93.65c.71 1.9 2.1 2.52 3.1 2.3a1.202 1.202 0 0 0 1-1.39.997.997 0 0 1 1.21-1.058c.205.044.39.152.53.308.51.57 1.18.76 1.48.58.46-.28.94-1.91-.58-6.08-5.62-15.42-19.21-29.43-26.09-32.3l-.49-.2c-5.13-2.14-14.57-6.09-27-3.3l3.83 15.69 3.82-.92c4.95-1.17 12.22.58 15.94 6.16 3 4.51 5.66 10.87 7.09 14.28l.71 1.67c.29.66.73.85 1 .77s.46-.56.34-1.16c-.51-2.55-2.55-13-2.55-13a.996.996 0 0 1 .627-1.12 1.002 1.002 0 0 1 1.213.42c.32.55 8 13.42 9.53 18.07.26.78.74 1.71 1.51 1.72a2.367 2.367 0 0 0 1.82-1.14.998.998 0 0 1 .82-.89zM323 310.631s-1.53 38.29-8.43 55.91 6.13 14.94 10.34 8 0 41-4.21 53.24 5.75 10.34 11.87-9.19 6.51-26.43 6.51-26.43zm48.21 17.049s-14.9-11.82-21-23.56-6.89 3.83-12.51-.51-14.3-12.51-19.4-24.51-13.79-11-15.58-9.2-9.45-16.08-20.17-11.74S267 268.63 267 268.63s24.76 3.57 31.91 7.91 14.81 4.85 18.64 15.83 2.55 7.66 2.55 7.66 34.52 24.58 51.11 27.65zM52.45 83.72s6.08 6.46 15.21 5.75l1 7c-1.5-.47-11.28-3.77-16.21-12.75z"/><path d="M68.71 97.49a1.35 1.35 0 0 1-.28 0c-1.94-.6-11.79-4-16.86-13.25A1.016 1.016 0 1 1 53.18 83c0 .06 5.88 6.11 14.4 5.44a1.06 1.06 0 0 1 1.1.91l1 7a1 1 0 0 1-.34.91 1 1 0 0 1-.63.23zm-11.6-9.22A30.87 30.87 0 0 0 67.49 95l-.66-4.47a19.7 19.7 0 0 1-9.72-2.26zM54.49 49a1 1 0 0 1-.951-1.318.999.999 0 0 1 .88-.682s5.08-.39 7.36-2.21a1 1 0 0 1 1.41.15 1 1 0 0 1-.19 1.39C60.27 48.54 54.79 49 54.56 49zM68.6 73c-.91 0-1.49 0-1.57-.06a1.005 1.005 0 1 1 .2-2c.08 0 8.15.77 13-4.17a1 1 0 1 1 1.43 1.39C77.46 72.48 71.43 73 68.6 73zm1.59-29.9a1 1 0 0 1-1-.93 1 1 0 0 1 .92-1.07c1.29-.09 5-.63 6.73-2a1 1 0 0 1 1.25 1.56c-2.57 2.05-7.62 2.43-7.84 2.45zm2.52 19.36a1.012 1.012 0 0 1-.31-2 3.77 3.77 0 0 0 2-1.3s0-.11-.09-.28l-.06-.1C73.47 57.35 68 48.06 67.93 48a1 1 0 1 1 1.72-1c.23.38 5.46 9.24 6.34 10.9a2.19 2.19 0 0 1 .3 2c-.54 1.6-2.82 2.42-3.27 2.56a.841.841 0 0 1-.31 0zm21.64 177.829s-17.11 2-25.28-12.51c-2.72-4.85-11.9-8-3.83-18.64 4.09-5.36 6.39-6.9 5.37-10.73-2-7.43-1.37-8.55 6.38-12.25 16.59-7.92-1-28.09-8.17-12-3.88 8.72-16.34 29.62-13.28 45.19 2.87 14.56 16.85 22.21 38.81 20.94z"/></g><path d="m36.24 107.08-3.83 13.53 22.21 18.64 8.17-27z" fill="#fff"/><path d="M54.62 140.251a1.002 1.002 0 0 1-.62-.25l-22.24-18.62a1 1 0 0 1-.32-1l3.83-13.53a1.001 1.001 0 0 1 1.16-.71l26.57 5.13a.988.988 0 0 1 .77 1.27l-8.17 27a1.001 1.001 0 0 1-.98.71zm-21.07-20 20.55 17.26 7.41-24.51-24.51-4.76zM295 211.689s8.43 6.89 12.51 23.49 16.09 28.09 16.34 17.11 7.66-11.75 17.11 3.57 24.35 9.52 32 14.37 28.6 13 28.6 13zM35 62.45a1 1 0 0 1-.78-.38 1.94 1.94 0 0 0-2.82-.24 1 1 0 1 1-1.22-1.59 3.922 3.922 0 0 1 5.61.59 1 1 0 0 1-.79 1.62zm413.39 246.11a16.917 16.917 0 0 1-4-.41 1.005 1.005 0 0 1-.73-.76 1 1 0 0 1 .35-1 27.646 27.646 0 0 0 4.32-4.62 77.073 77.073 0 0 1 6.21-6.95 7.436 7.436 0 0 1 7.58-2A5.482 5.482 0 0 1 466 297c.22 1.37 0 4.09-3.78 6.9a23.063 23.063 0 0 1-13.83 4.66zm-1.46-2.07A21.195 21.195 0 0 0 461 302.3c2.19-1.62 3.25-3.38 3-5a3.485 3.485 0 0 0-2.48-2.62 5.481 5.481 0 0 0-5.56 1.55 73.243 73.243 0 0 0-6.06 6.78 41.693 41.693 0 0 1-2.97 3.48z" fill="#1a1a1a"/><path d="M444.37 307.001a.997.997 0 0 1-.82-.42c-.28-.4-1.61-2.82-.2-11.7.62-3.91 2.57-5.09 3.68-5.45a5.21 5.21 0 0 1 5.22 1.55 6.004 6.004 0 0 1 1.57 6.12c-1.88 5.74-8.68 9.61-9 9.77a1.128 1.128 0 0 1-.45.13zm4-15.77a2.238 2.238 0 0 0-.69.1c-1.15.38-2 1.75-2.31 3.86-.83 5.23-.65 8-.41 9.27 1.89-1.26 5.77-4.23 7-8a3.997 3.997 0 0 0-1.09-4.09 3.669 3.669 0 0 0-2.54-1.16zM347.59 518.589a14.81 14.81 0 0 1-4.89-.94c-11.34-4-14.38-11.72-14.5-12a1.003 1.003 0 0 1 .686-1.327.995.995 0 0 1 .554.017 40.068 40.068 0 0 0 7.09 1.4c2.65.37 6 .84 10.35 1.85 3.32.77 5.7 2.71 6.35 5.17a4.346 4.346 0 0 1-1.23 4.4 6.331 6.331 0 0 1-4.41 1.43zm-16.44-11.75c1.6 2.39 5.19 6.44 12.21 8.92 3.24 1.15 6 1.11 7.29-.11a2.338 2.338 0 0 0 .65-2.41c-.36-1.35-1.82-3-4.87-3.74-4.31-1-7.43-1.43-10.18-1.82-1.89-.26-3.52-.49-5.1-.84z" fill="#1a1a1a"/><path d="M341.81 508.339c-6.11 0-13.05-2.82-13.38-3a1 1 0 0 1-.61-1.09 1.003 1.003 0 0 1 .94-.83c.06 0 3.49-.26 11.53-4.56 3.93-2.1 6.18-1.1 7.17-.31a5.094 5.094 0 0 1 1.5 5.35 5.733 5.733 0 0 1-4.75 4.23c-.793.131-1.596.201-2.4.21zm-9.47-3.71c3.08 1 7.85 2.12 11.57 1.56a3.679 3.679 0 0 0 3.11-2.77 3.15 3.15 0 0 0-.8-3.26c-1.05-.84-2.83-.65-5 .5a57.202 57.202 0 0 1-8.88 3.97zM236.47 340.3s16.82-1.33 29.46-9 18.38 1.53 14.17 7.66-12.26 29.871-4.22 25.271 13.41 1.92 10.34 13-3.83 32.169.39 30.629 2.2 40.151 2.2 40.151S269.6 359.92 265 349.31c-7.31-16.66-28.53-9.01-28.53-9.01zm52.78 1.7a184.78 184.78 0 0 0 10.86-19.92c3.25-7 6-3.52 5.73 1.16-.62 10.37-8.48 24.8-9.37 26.48-3.11 5.84-11.11 1.46-7.22-7.72z" fill="#1a1a1a"/><path d="M473.47 299.33s3.45 7.09-3.83 11.11-21.26 7.09-27.57 5.17" fill="#fece2f"/><path d="M447 317.201a18.413 18.413 0 0 1-5.17-.63 1.002 1.002 0 0 1 .58-1.92c6.11 1.86 19.85-1.24 26.8-5.08a7.338 7.338 0 0 0 3.41-9.8 1.005 1.005 0 0 1 .137-1.121.993.993 0 0 1 .7-.338.992.992 0 0 1 .732.266c.098.091.176.201.231.323 0 .08 3.77 8-4.25 12.42a55.512 55.512 0 0 1-23.17 5.88z" fill="#1a1a1a"/><path d="M321.27 508.24A35.096 35.096 0 0 0 340 524.9c6.13 2.68 10.73-2.1 10.73-2.1" fill="#fece2f"/><path d="M343.77 526.71a10.272 10.272 0 0 1-4.14-.89 35.833 35.833 0 0 1-19.28-17.17 1.002 1.002 0 0 1 1.275-1.339c.248.096.447.286.555.529A34.479 34.479 0 0 0 340.39 524c5.47 2.39 9.6-1.82 9.64-1.87a.997.997 0 0 1 1.42 0 1.001 1.001 0 0 1 0 1.41 11.731 11.731 0 0 1-7.68 3.17zm-45.29 9.3 27.38 3.45-5.08 7.14-23.17-2.26zm153.47-185.961 18.91-20.11 2.78 8.32-15.47 17.39zM186.46 280a.995.995 0 0 1-.656-.235.996.996 0 0 1-.344-.605 63.443 63.443 0 0 0-5.45-16 1.003 1.003 0 0 1 .42-1.34.996.996 0 0 1 1.35.42 63.94 63.94 0 0 1 5.65 16.58 1.003 1.003 0 0 1-.82 1.15zm-29.65 41.409s33.29 2.37 50.14-14.49a80.527 80.527 0 0 0 22.72-41.87c1.79-8.17 7.4-15.57 7.15-.51s4.34 21.19 11 10 7.4-15.32 8.17-18.64 7.15 0 4.34 10.72-23 38.3-39.07 46.47-39.94 20.06-64.45 8.32zm121.95-50.23s-15.9-3.57-27 25c0-6.64 7.65-23.3 17.61-29.23a16.132 16.132 0 0 1 9.39 4.23z" fill="#1a1a1a"/><path d="M372.9 171.73a3.132 3.132 0 0 1-1.49-.07c1-1.1 1.87-2.19 2.67-3.12 2.49-2.88 3.26-6.13 0-7.28-2.17-.77-4 1.15-7.33 4.63-1.31 1.37-4.4 1.38-6.89 1.13C352.17 163.37 344 159 344 159a54.738 54.738 0 0 0 5.55-2.48c5.27-2.83 8.11-11.75 1-9.26s-10.95 4-18.38 7.15c-6.82 2.91-11.78 6.13-19.37 9l5.4 19.59s1.82-.77 4-1.63c6.67-2.61 20.94 3.87 37.15 5.94 8.9 1.13 15.07-3.06 18.13-8.43s-.36-8.55-4.58-7.15z" fill="#fece2f"/><path d="M362.17 188.489a22.268 22.268 0 0 1-2.92-.19 159.13 159.13 0 0 1-18.49-3.81c-7.78-1.94-14.5-3.62-18.17-2.19-2.19.86-4 1.62-4 1.62a1 1 0 0 1-1.35-.66l-5.4-19.63a.999.999 0 0 1 .61-1.2 109.081 109.081 0 0 0 11.23-5.12c2.55-1.28 5.17-2.61 8.11-3.86 7.44-3.17 11.06-4.58 18.44-7.17 3.75-1.32 5 .38 5.31 1.16 1.2 2.74-1.62 7.84-5.5 9.92-1.23.66-2.58 1.27-3.66 1.73 2.83 1.5 8.42 4.41 13.76 6.95 3 .29 5.1 0 5.88-.84 3.49-3.66 5.59-5.87 8.4-4.88a3.88 3.88 0 0 1 2.7 2.66c.46 1.74-.37 4-2.28 6.21l-1 1.13-.15.18a5.061 5.061 0 0 1 4.92 1.57c1.46 1.78 1.36 4.44-.28 7.31a18.09 18.09 0 0 1-16.16 9.11zm-36.09-8.73c4 0 9.13 1.28 15.17 2.79a155.672 155.672 0 0 0 18.25 3.77c10.59 1.35 15.51-5.1 17.13-7.93 1.21-2.11 1.38-3.95.48-5s-2.27-1.2-3.89-.66a3.897 3.897 0 0 1-2 0 .993.993 0 0 1-.749-.668 1.004 1.004 0 0 1 .209-.982c.6-.67 1.16-1.33 1.68-2 .34-.41.66-.8 1-1.16 1.42-1.65 2.14-3.32 1.86-4.38a2.003 2.003 0 0 0-1.44-1.3c-1.51-.53-3.11 1.05-6.28 4.38-1.28 1.35-3.87 1.83-7.71 1.43a.876.876 0 0 1-.32-.09c-7.63-3.62-15.81-8-15.9-8.08a.996.996 0 0 1-.325-1.482c.116-.154.274-.271.455-.338a53.41 53.41 0 0 0 5.43-2.42c3.21-1.72 5.25-5.9 4.61-7.35-.37-.84-2.09-.34-2.82-.08-7.33 2.57-10.92 4-18.32 7.12-2.87 1.23-5.47 2.54-8 3.81-3.23 1.62-6.55 3.3-10.58 4.87l4.86 17.67c.74-.3 1.81-.74 3-1.2 1.343-.5 2.767-.744 4.2-.72z" fill="#1a1a1a"/><path d="M337.29 170.24H337a.997.997 0 0 1-1-1 1 1 0 0 1 1-1h.1c1.09 0 3.79-.09 5.31-2 1.23-1.51 1.47-3.89.71-7.08a1.002 1.002 0 0 1 .721-1.28 1.007 1.007 0 0 1 1.075.437.996.996 0 0 1 .144.383c.92 3.82.55 6.78-1.1 8.8-1.96 2.42-5.13 2.74-6.67 2.74zm20.45 7.761a1.003 1.003 0 0 1-1-.93l-.64-8.17a.998.998 0 0 1 1.99-.15l.64 8.17a1.004 1.004 0 0 1-.92 1.07z" fill="#1a1a1a"/><path d="M365.3 174.44a30.861 30.861 0 0 1-7.87-1.57.995.995 0 0 1-.683-.878.997.997 0 0 1 .925-1.07.98.98 0 0 1 .388.048c1.63.54 6.29 1.85 8.26 1.38a31.575 31.575 0 0 0 4.8-1.6 1 1 0 0 1 1.325.505 1 1 0 0 1-.505 1.325 34.55 34.55 0 0 1-5.16 1.72 6.75 6.75 0 0 1-1.48.14zm-.99 4.73a25.77 25.77 0 0 1-6.69-1.34 1 1 0 0 1-.134-1.845.999.999 0 0 1 .764-.055c1.89.63 5.44 1.51 6.87 1.16a25.29 25.29 0 0 0 4-1.34 1.002 1.002 0 0 1 1.32.51 1 1 0 0 1-.51 1.32 27.538 27.538 0 0 1-4.37 1.46c-.411.09-.83.133-1.25.13z" fill="#1a1a1a"/></g></svg></g><g transform="translate(611.0 185.0) rotate(0.0 159.0 194.5) translate(121.09839816933638 67.27688787185355) scale(1.8928571428571428 1.897560975609756)"><svg width="104.023" height="105.398" viewBox="63.977 35.454 104.023 105.398"><clipPath id="i"><path d="M0 0h167.3v204.5H0z"/></clipPath><g clip-path="url(#i)" fill="#FFCE31"><path d="M8.6 5.8c0 3.5-1.4 5.9-4.3 5.9-3 .1-4.3-2.6-4.3-5.8C0 2.6 1.4 0 4.3 0c3.1 0 4.3 2.7 4.3 5.8zm-5.9.1c0 2.6.6 3.9 1.6 3.9s1.6-1.3 1.6-3.9S5.4 2 4.3 2c-1 0-1.6 1.3-1.6 3.9zm.9 14.2-2.2 1-.4-2 3-1.4h2.2v11.4H3.6zm5 20.8c0 3.5-1.4 5.9-4.3 5.9S.1 44.2 0 40.9C0 37.7 1.4 35 4.3 35c3.1 0 4.3 2.8 4.3 5.9zm-5.9 0c0 2.6.6 3.9 1.6 3.9s1.6-1.3 1.6-3.9c0-2.5-.5-3.9-1.6-3.9-1 .1-1.6 1.3-1.6 3.9zm5.9 17.5c0 3.5-1.4 5.9-4.3 5.9S.1 61.7 0 58.4c0-3.3 1.4-5.9 4.3-5.9 3.1.1 4.3 2.8 4.3 5.9zm-5.9.1c0 2.6.6 3.9 1.6 3.9s1.6-1.3 1.6-3.9c0-2.5-.5-3.9-1.6-3.9-1 0-1.6 1.2-1.6 3.9zm.9 14.1-2.2 1-.4-2 3-1.4h2.2v11.4H3.6zm0 17.6-2.2 1-.4-2 3-1.4h2.2v11.4H3.6zm0 17.5-2.2 1-.4-2 3-1.4h2.2v11.4H3.6zm0 17.5-2.2 1-.4-2 3-1.4h2.2v11.4H3.6zm5 20.8c0 3.5-1.4 5.9-4.3 5.9S.1 149.3 0 146c0-3.3 1.4-5.9 4.3-5.9 3.1.1 4.3 2.8 4.3 5.9zm-5.9.1c0 2.6.6 3.9 1.6 3.9s1.6-1.3 1.6-3.9c0-2.5-.5-3.9-1.6-3.9-1 0-1.6 1.2-1.6 3.9zm5.9 17.4c0 3.5-1.4 5.9-4.3 5.9s-4.2-2.6-4.3-5.9c0-3.3 1.4-5.9 4.3-5.9 3.1.1 4.3 2.8 4.3 5.9zm-5.9.1c0 2.6.6 3.9 1.6 3.9s1.6-1.3 1.6-3.9c0-2.5-.5-3.9-1.6-3.9-1 0-1.6 1.2-1.6 3.9zM8.6 181c0 3.5-1.4 5.9-4.3 5.9S.1 184.3 0 181c0-3.3 1.4-5.9 4.3-5.9 3.1.1 4.3 2.8 4.3 5.9zm-5.9.1c0 2.6.6 3.9 1.6 3.9s1.6-1.3 1.6-3.9c0-2.5-.5-3.9-1.6-3.9-1 0-1.6 1.3-1.6 3.9zm.9 14.2-2.2 1-.4-2 3-1.4h2.2v11.4H3.6zM16.8 2.6l-2.2 1-.4-2 3-1.4h2.2v11.4h-2.6zm0 17.5-2.2 1-.4-2 3-1.4h2.2v11.4h-2.6zm5 20.8c0 3.5-1.4 5.9-4.3 5.9s-4.2-2.6-4.3-5.9c0-3.3 1.4-5.9 4.3-5.9 3.1 0 4.3 2.8 4.3 5.9zm-5.9 0c0 2.6.6 3.9 1.6 3.9s1.6-1.3 1.6-3.9c0-2.5-.5-3.9-1.6-3.9-.9.1-1.6 1.3-1.6 3.9zm.9 14.2-2.2 1-.4-2 3-1.4h2.2v11.4h-2.6zm5 20.8c0 3.5-1.4 5.9-4.3 5.9s-4.2-2.6-4.3-5.9c0-3.3 1.4-5.9 4.3-5.9 3.1.1 4.3 2.8 4.3 5.9zm-5.9.1c0 2.6.6 3.9 1.6 3.9s1.6-1.3 1.6-3.9c0-2.5-.5-3.9-1.6-3.9-.9 0-1.6 1.2-1.6 3.9zm5.9 17.4c0 3.5-1.4 5.9-4.3 5.9s-4.2-2.6-4.3-5.9c0-3.3 1.4-5.9 4.3-5.9 3.1.1 4.3 2.8 4.3 5.9zm-5.9.1c0 2.6.6 3.9 1.6 3.9s1.6-1.3 1.6-3.9c0-2.5-.5-3.9-1.6-3.9-.9 0-1.6 1.3-1.6 3.9zm5.9 17.5c0 3.5-1.4 5.9-4.3 5.9s-4.2-2.6-4.3-5.9c0-3.3 1.4-5.9 4.3-5.9 3.1 0 4.3 2.7 4.3 5.9zm-5.9 0c0 2.6.6 3.9 1.6 3.9s1.6-1.3 1.6-3.9c0-2.5-.5-3.9-1.6-3.9-.9 0-1.6 1.3-1.6 3.9zm.9 14.2-2.2 1-.4-2 3-1.4h2.2v11.4h-2.6zm5 20.8c0 3.5-1.4 5.9-4.3 5.9s-4.2-2.6-4.3-5.9c0-3.3 1.4-5.9 4.3-5.9 3.1.1 4.3 2.8 4.3 5.9zm-5.9.1c0 2.6.6 3.9 1.6 3.9s1.6-1.3 1.6-3.9c0-2.5-.5-3.9-1.6-3.9-.9 0-1.6 1.2-1.6 3.9zm.9 14.1-2.2 1-.4-2 3-1.4h2.2v11.4h-2.6zm0 17.6-2.2 1-.4-2 3-1.4h2.2v11.4h-2.6zm0 17.5-2.2 1-.4-2 3-1.4h2.2v11.4h-2.6zM35 5.8c0 3.5-1.4 5.9-4.3 5.9s-4.2-2.6-4.3-5.9c0-3.3 1.4-5.9 4.3-5.9C33.8 0 35 2.7 35 5.8zm-5.9.1c0 2.6.6 3.9 1.6 3.9s1.6-1.3 1.6-3.9c0-2.5-.5-3.9-1.6-3.9-.9 0-1.6 1.3-1.6 3.9zM35 23.4c0 3.5-1.4 5.9-4.3 5.9s-4.2-2.6-4.3-5.9c0-3.3 1.4-5.9 4.3-5.9 3.1 0 4.3 2.7 4.3 5.9zm-5.9 0c0 2.6.6 3.9 1.6 3.9s1.6-1.3 1.6-3.9c0-2.5-.5-3.9-1.6-3.9-.9 0-1.6 1.3-1.6 3.9zm.9 14.2-2.2 1-.4-2 3-1.4h2.2v11.4H30zm5 20.8c0 3.5-1.4 5.9-4.3 5.9s-4.2-2.6-4.3-5.9c0-3.3 1.4-5.9 4.3-5.9 3.1.1 4.3 2.8 4.3 5.9zm-5.9.1c0 2.6.6 3.9 1.6 3.9s1.6-1.3 1.6-3.9c0-2.5-.5-3.9-1.6-3.9-.9 0-1.6 1.2-1.6 3.9zM35 75.9c0 3.5-1.4 5.9-4.3 5.9s-4.2-2.6-4.3-5.9c0-3.3 1.4-5.9 4.3-5.9 3.1.1 4.3 2.8 4.3 5.9zm-5.9.1c0 2.6.6 3.9 1.6 3.9s1.6-1.3 1.6-3.9c0-2.5-.5-3.9-1.6-3.9-.9 0-1.6 1.2-1.6 3.9zM48.3 5.8c0 3.5-1.4 5.9-4.3 5.9s-4.2-2.6-4.3-5.9C39.7 2.6 41.1 0 44 0c3.1 0 4.3 2.7 4.3 5.8zm-5.9.1c0 2.6.6 3.9 1.6 3.9s1.6-1.3 1.6-3.9S45.1 2 44 2c-1 0-1.7 1.3-1.6 3.9zm5.9 17.5c0 3.5-1.4 5.9-4.3 5.9s-4.2-2.6-4.3-5.9c0-3.3 1.4-5.9 4.3-5.9 3.1 0 4.3 2.7 4.3 5.9zm-5.9 0c0 2.6.6 3.9 1.6 3.9s1.6-1.3 1.6-3.9c0-2.5-.5-3.9-1.6-3.9-1 0-1.7 1.3-1.6 3.9zm5.9 17.5c0 3.5-1.4 5.9-4.3 5.9s-4.2-2.6-4.3-5.9c0-3.3 1.4-5.9 4.3-5.9 3.1 0 4.3 2.8 4.3 5.9zm-5.9 0c0 2.6.6 3.9 1.6 3.9s1.6-1.3 1.6-3.9c0-2.5-.5-3.9-1.6-3.9-1 .1-1.7 1.3-1.6 3.9zm.9 14.2-2.2 1-.4-2 3-1.4h2.2v11.4h-2.6zM56.5 2.6l-2.2 1-.4-2 3-1.4h2.2v11.4h-2.6zm0 17.5-2.2 1-.4-2 3-1.4h2.2v11.4h-2.6zm0 17.5-2.2 1-.4-2 3-1.4h2.2v11.4h-2.6zm5 20.8c0 3.5-1.4 5.9-4.3 5.9s-4.2-2.6-4.3-5.9c0-3.3 1.4-5.9 4.3-5.9 3.1.1 4.3 2.8 4.3 5.9zm-5.9.1c0 2.6.6 3.9 1.6 3.9s1.6-1.3 1.6-3.9c0-2.5-.5-3.9-1.6-3.9-1 0-1.6 1.2-1.6 3.9zM69.7 2.6l-2.2 1-.4-2 3-1.4h2.2v11.4h-2.6zm5 20.8c0 3.5-1.4 5.9-4.3 5.9s-4.2-2.6-4.3-5.9c0-3.3 1.4-5.9 4.3-5.9 3.1 0 4.3 2.7 4.3 5.9zm-5.9 0c0 2.6.6 3.9 1.6 3.9S72 26 72 23.4c0-2.5-.5-3.9-1.6-3.9-.9 0-1.6 1.3-1.6 3.9zm5.9 17.5c0 3.5-1.4 5.9-4.3 5.9s-4.2-2.6-4.3-5.9c0-3.3 1.4-5.9 4.3-5.9 3.1 0 4.3 2.8 4.3 5.9zm-5.9 0c0 2.6.6 3.9 1.6 3.9s1.6-1.3 1.6-3.9c0-2.5-.5-3.9-1.6-3.9-.9.1-1.6 1.3-1.6 3.9zm.9 14.2-2.2 1-.4-2 3-1.4h2.2v11.4h-2.6zM87.9 5.8c0 3.5-1.4 5.9-4.3 5.9s-4.2-2.6-4.3-5.9c0-3.3 1.4-5.9 4.3-5.9 3.2.1 4.3 2.8 4.3 5.9zm-5.9.1c0 2.6.6 3.9 1.6 3.9s1.6-1.3 1.6-3.9c0-2.5-.5-3.9-1.6-3.9-.9 0-1.6 1.3-1.6 3.9zm.9 14.2-2.2 1-.4-2 3-1.4h2.2v11.4h-2.6zm5 20.8c0 3.5-1.4 5.9-4.3 5.9s-4.2-2.6-4.3-5.9c0-3.3 1.4-5.9 4.3-5.9 3.2 0 4.3 2.8 4.3 5.9zm-5.9 0c0 2.6.6 3.9 1.6 3.9s1.6-1.3 1.6-3.9c0-2.5-.5-3.9-1.6-3.9-.9.1-1.6 1.3-1.6 3.9zm5.9 17.5c0 3.5-1.4 5.9-4.3 5.9s-4.2-2.6-4.3-5.9c0-3.3 1.4-5.9 4.3-5.9 3.2.1 4.3 2.8 4.3 5.9zm-5.9.1c0 2.6.6 3.9 1.6 3.9s1.6-1.3 1.6-3.9c0-2.5-.5-3.9-1.6-3.9-.9 0-1.6 1.2-1.6 3.9zM96.2 2.6l-2.2 1-.4-2 3-1.4h2.2v11.4h-2.6zm0 17.5-2.2 1-.4-2 3-1.4h2.2v11.4h-2.6zm0 17.5-2.2 1-.4-2 3-1.4h2.2v11.4h-2.6zm5 20.8c0 3.5-1.4 5.9-4.3 5.9s-4.2-2.6-4.3-5.9c0-3.3 1.4-5.9 4.3-5.9 3.1.1 4.3 2.8 4.3 5.9zm-5.9.1c0 2.6.6 3.9 1.6 3.9s1.6-1.3 1.6-3.9c0-2.5-.5-3.9-1.6-3.9-1 0-1.6 1.2-1.6 3.9zm14.1-55.9-2.2 1-.4-2 3-1.4h2.2v11.4h-2.6zm0 17.5-2.2 1-.4-2 3-1.4h2.2v11.4h-2.6zm5 20.8c0 3.5-1.4 5.9-4.3 5.9s-4.2-2.6-4.3-5.9c0-3.3 1.4-5.9 4.3-5.9 3.1 0 4.3 2.8 4.3 5.9zm-5.9 0c0 2.6.6 3.9 1.6 3.9s1.6-1.3 1.6-3.9c0-2.5-.5-3.9-1.6-3.9-1 .1-1.6 1.3-1.6 3.9zm.9 14.2-2.2 1-.4-2 3-1.4h2.2v11.4h-2.6zm5 20.8c0 3.5-1.4 5.9-4.3 5.9s-4.2-2.6-4.3-5.9c0-3.3 1.4-5.9 4.3-5.9 3.1.1 4.3 2.8 4.3 5.9zm-5.9.1c0 2.6.6 3.9 1.6 3.9s1.6-1.3 1.6-3.9c0-2.5-.5-3.9-1.6-3.9-1 0-1.6 1.2-1.6 3.9zm5.9 17.4c0 3.5-1.4 5.9-4.3 5.9s-4.2-2.6-4.3-5.9c0-3.3 1.4-5.9 4.3-5.9 3.1.1 4.3 2.8 4.3 5.9zm-5.9.1c0 2.6.6 3.9 1.6 3.9s1.6-1.3 1.6-3.9c0-2.5-.5-3.9-1.6-3.9-1 0-1.6 1.3-1.6 3.9zm19.1-87.7c0 3.5-1.4 5.9-4.3 5.9s-4.2-2.6-4.3-5.9c0-3.3 1.4-5.9 4.3-5.9 3.1.1 4.3 2.8 4.3 5.9zm-5.9.1c0 2.6.6 3.9 1.6 3.9s1.6-1.3 1.6-3.9c0-2.5-.5-3.9-1.6-3.9-.9 0-1.6 1.3-1.6 3.9zm.9 14.2-2.2 1-.4-2 3-1.4h2.2v11.4h-2.6zm0 17.5-2.2 1-.4-2 3-1.4h2.2v11.4h-2.6zm5 20.8c0 3.5-1.4 5.9-4.3 5.9s-4.2-2.6-4.3-5.9c0-3.3 1.4-5.9 4.3-5.9 3.1.1 4.3 2.8 4.3 5.9zm-5.9.1c0 2.6.6 3.9 1.6 3.9s1.6-1.3 1.6-3.9c0-2.5-.5-3.9-1.6-3.9-.9 0-1.6 1.2-1.6 3.9zm5.9 17.4c0 3.5-1.4 5.9-4.3 5.9s-4.2-2.6-4.3-5.9c0-3.3 1.4-5.9 4.3-5.9 3.1.1 4.3 2.8 4.3 5.9zm-5.9.1c0 2.6.6 3.9 1.6 3.9s1.6-1.3 1.6-3.9c0-2.5-.5-3.9-1.6-3.9-.9 0-1.6 1.2-1.6 3.9zm.9 14.2-2.2 1-.4-2 3-1.4h2.2v11.4h-2.6zm0 17.5-2.2 1-.4-2 3-1.4h2.2v11.4h-2.6zm0 17.5-2.2 1-.4-2 3-1.4h2.2v11.4h-2.6zm5 20.8c0 3.5-1.4 5.9-4.3 5.9s-4.2-2.6-4.3-5.9c0-3.3 1.4-5.9 4.3-5.9 3.1.1 4.3 2.8 4.3 5.9zm-5.9.1c0 2.6.6 3.9 1.6 3.9s1.6-1.3 1.6-3.9c0-2.5-.5-3.9-1.6-3.9-.9 0-1.6 1.2-1.6 3.9zm.9 14.1-2.2 1-.4-2 3-1.4h2.2v11.4h-2.6zm5 20.8c0 3.5-1.4 5.9-4.3 5.9s-4.2-2.6-4.3-5.9c0-3.3 1.4-5.9 4.3-5.9 3.1.1 4.3 2.8 4.3 5.9zm-5.9.1c0 2.6.6 3.9 1.6 3.9s1.6-1.3 1.6-3.9c0-2.5-.5-3.9-1.6-3.9-.9 0-1.6 1.3-1.6 3.9zm.9 14.2-2.2 1-.4-2 3-1.4h2.2v11.4h-2.6zM140.9 5.8c0 3.5-1.4 5.9-4.3 5.9s-4.2-2.6-4.3-5.9c0-3.3 1.4-5.9 4.3-5.9 3.1.1 4.3 2.8 4.3 5.9zm-5.9.1c0 2.6.6 3.9 1.6 3.9s1.6-1.3 1.6-3.9c0-2.5-.5-3.9-1.6-3.9-1 0-1.7 1.3-1.6 3.9zm.8 14.2-2.2 1-.4-2 3-1.4h2.2v11.4h-2.6zm0 17.5-2.2 1-.4-2 3-1.4h2.2v11.4h-2.6zm0 17.5-2.2 1-.4-2 3-1.4h2.2v11.4h-2.6zm5.1 20.8c0 3.5-1.4 5.9-4.3 5.9s-4.2-2.6-4.3-5.9c0-3.3 1.4-5.9 4.3-5.9 3.1.1 4.3 2.8 4.3 5.9zm-5.9.1c0 2.6.6 3.9 1.6 3.9s1.6-1.3 1.6-3.9c0-2.5-.5-3.9-1.6-3.9-1 0-1.7 1.2-1.6 3.9zm.8 14.2-2.2 1-.4-2 3-1.4h2.2v11.4h-2.6zm5.1 20.8c0 3.5-1.4 5.9-4.3 5.9s-4.2-2.6-4.3-5.9c0-3.3 1.4-5.9 4.3-5.9 3.1 0 4.3 2.7 4.3 5.9zm-5.9 0c0 2.6.6 3.9 1.6 3.9s1.6-1.3 1.6-3.9c0-2.5-.5-3.9-1.6-3.9-1 0-1.7 1.3-1.6 3.9zm5.9 17.5c0 3.5-1.4 5.9-4.3 5.9s-4.2-2.6-4.3-5.9c0-3.3 1.4-5.9 4.3-5.9 3.1 0 4.3 2.8 4.3 5.9zm-5.9 0c0 2.6.6 3.9 1.6 3.9s1.6-1.3 1.6-3.9c0-2.5-.5-3.9-1.6-3.9-1 .1-1.7 1.3-1.6 3.9zm5.9 17.5c0 3.5-1.4 5.9-4.3 5.9s-4.2-2.6-4.3-5.9c0-3.3 1.4-5.9 4.3-5.9 3.1.1 4.3 2.8 4.3 5.9zm-5.9.1c0 2.6.6 3.9 1.6 3.9s1.6-1.3 1.6-3.9c0-2.5-.5-3.9-1.6-3.9-1 0-1.7 1.2-1.6 3.9zm.8 14.1-2.2 1-.4-2 3-1.4h2.2v11.4h-2.6zm0 17.6-2.2 1-.4-2 3-1.4h2.2v11.4h-2.6zm5.1 20.8c0 3.5-1.4 5.9-4.3 5.9s-4.2-2.6-4.3-5.9c0-3.3 1.4-5.9 4.3-5.9 3.1 0 4.3 2.7 4.3 5.9zm-5.9 0c0 2.6.6 3.9 1.6 3.9s1.6-1.3 1.6-3.9c0-2.5-.5-3.9-1.6-3.9-1 0-1.7 1.3-1.6 3.9zm14.1-196-2.2 1-.4-2 3-1.4h2.2v11.4h-2.6zm0 17.5-2.2 1-.4-2 3-1.4h2.2v11.4h-2.6zm5 20.8c0 3.5-1.4 5.9-4.3 5.9s-4.2-2.6-4.3-5.9c0-3.3 1.4-5.9 4.3-5.9 3.1 0 4.3 2.8 4.3 5.9zm-5.9 0c0 2.6.6 3.9 1.6 3.9s1.6-1.3 1.6-3.9c0-2.5-.5-3.9-1.6-3.9-1 .1-1.6 1.3-1.6 3.9zm.9 14.2-2.2 1-.4-2 3-1.4h2.2v11.4h-2.6zm5 20.8c0 3.5-1.4 5.9-4.3 5.9s-4.2-2.6-4.3-5.9c0-3.3 1.4-5.9 4.3-5.9 3.1.1 4.3 2.8 4.3 5.9zm-5.9.1c0 2.6.6 3.9 1.6 3.9s1.6-1.3 1.6-3.9c0-2.5-.5-3.9-1.6-3.9-1 0-1.6 1.2-1.6 3.9zm5.9 17.4c0 3.5-1.4 5.9-4.3 5.9s-4.2-2.6-4.3-5.9c0-3.3 1.4-5.9 4.3-5.9 3.1.1 4.3 2.8 4.3 5.9zm-5.9.1c0 2.6.6 3.9 1.6 3.9s1.6-1.3 1.6-3.9c0-2.5-.5-3.9-1.6-3.9-1 0-1.6 1.3-1.6 3.9zm.9 14.2-2.2 1-.4-2 3-1.4h2.2v11.4h-2.6zm0 17.5-2.2 1-.4-2 3-1.4h2.2v11.4h-2.6zm0 17.5-2.2 1-.4-2 3-1.4h2.2v11.4h-2.6zm0 17.5-2.2 1-.4-2 3-1.4h2.2v11.4h-2.6zm5 20.8c0 3.5-1.4 5.9-4.3 5.9s-4.2-2.6-4.3-5.9c0-3.3 1.4-5.9 4.3-5.9 3.1.1 4.3 2.8 4.3 5.9zm-5.9.1c0 2.6.6 3.9 1.6 3.9s1.6-1.3 1.6-3.9c0-2.5-.5-3.9-1.6-3.9-1 0-1.6 1.3-1.6 3.9zm5.9 17.5c0 3.5-1.4 5.9-4.3 5.9s-4.2-2.6-4.3-5.9c0-3.3 1.4-5.9 4.3-5.9 3.1 0 4.3 2.7 4.3 5.9zm-5.9 0c0 2.6.6 3.9 1.6 3.9s1.6-1.3 1.6-3.9c0-2.5-.5-3.9-1.6-3.9-1 0-1.6 1.3-1.6 3.9zM167.3 5.8c0 3.5-1.4 5.9-4.3 5.9s-4.2-2.6-4.3-5.9c0-3.3 1.4-5.9 4.3-5.9 3.1.1 4.3 2.8 4.3 5.9zm-5.9.1c0 2.6.6 3.9 1.6 3.9s1.6-1.3 1.6-3.9c0-2.5-.5-3.9-1.6-3.9-.9 0-1.6 1.3-1.6 3.9zm.9 14.2-2.2 1-.4-2 3-1.4h2.2v11.4h-2.6zm0 17.5-2.2 1-.4-2 3-1.4h2.2v11.4h-2.6zm0 17.5-2.2 1-.4-2 3-1.4h2.2v11.4h-2.6zm5 20.8c0 3.5-1.4 5.9-4.3 5.9s-4.2-2.6-4.3-5.9c0-3.3 1.4-5.9 4.3-5.9 3.1.1 4.3 2.8 4.3 5.9zm-5.9.1c0 2.6.6 3.9 1.6 3.9s1.6-1.3 1.6-3.9c0-2.5-.5-3.9-1.6-3.9-.9 0-1.6 1.2-1.6 3.9zm5.9 17.4c0 3.5-1.4 5.9-4.3 5.9s-4.2-2.6-4.3-5.9c0-3.3 1.4-5.9 4.3-5.9 3.1.1 4.3 2.8 4.3 5.9zm-5.9.1c0 2.6.6 3.9 1.6 3.9s1.6-1.3 1.6-3.9c0-2.5-.5-3.9-1.6-3.9-.9 0-1.6 1.3-1.6 3.9zm.9 14.2-2.2 1-.4-2 3-1.4h2.2v11.4h-2.6zm5 20.8c0 3.5-1.4 5.9-4.3 5.9s-4.2-2.6-4.3-5.9c0-3.3 1.4-5.9 4.3-5.9 3.1 0 4.3 2.8 4.3 5.9zm-5.9 0c0 2.6.6 3.9 1.6 3.9s1.6-1.3 1.6-3.9c0-2.5-.5-3.9-1.6-3.9-.9.1-1.6 1.3-1.6 3.9zm5.9 17.5c0 3.5-1.4 5.9-4.3 5.9s-4.2-2.6-4.3-5.9c0-3.3 1.4-5.9 4.3-5.9 3.1.1 4.3 2.8 4.3 5.9zm-5.9.1c0 2.6.6 3.9 1.6 3.9s1.6-1.3 1.6-3.9c0-2.5-.5-3.9-1.6-3.9-.9 0-1.6 1.2-1.6 3.9zm5.9 17.4c0 3.5-1.4 5.9-4.3 5.9s-4.2-2.6-4.3-5.9c0-3.3 1.4-5.9 4.3-5.9 3.1.1 4.3 2.8 4.3 5.9zm-5.9.1c0 2.6.6 3.9 1.6 3.9s1.6-1.3 1.6-3.9c0-2.5-.5-3.9-1.6-3.9-.9 0-1.6 1.2-1.6 3.9zm.9 14.2-2.2 1-.4-2 3-1.4h2.2v11.4h-2.6zm0 17.5-2.2 1-.4-2 3-1.4h2.2v11.4h-2.6z"/></g></svg></g></svg>